<svg xmlns="http://www.w3.org/2000/svg" width="26" height="72"><path d="M25.808 71.069q-1.4-.964-2.73-2.042c-.223-.684-.438-1.417-.649-2.222a12.508 12.508 0 0 0 .588-3.892 12.215 12.215 0 0 0-.83-4.085 24.184 24.184 0 0 1-1.422-2.84c-.037-.134-.222-.111-.264.04-.4 1.327-1.092 2.369-1.311 3.419a7.378 7.378 0 0 0 2.439 7.465q.16.605.318 1.161a40.964 40.964 0 0 1-3.112-3q-1.137-1.223-2.18-2.536c-.036-.35-.069-.7-.09-1.053l-.049-.726-.015-.369a12.853 12.853 0 0 0 .77-1.61 10.74 10.74 0 0 0 .57-1.936 11.63 11.63 0 0 0 .016-4.032 24.937 24.937 0 0 1-.791-2.987c-.011-.134-.19-.149-.264-.015-.628 1.174-1.488 2.013-1.893 2.967a7.171 7.171 0 0 0 .822 7.55l.018.471.038.605a42.414 42.414 0 0 1-2.486-3.761q-.814-1.389-1.522-2.844c.083-.709.178-1.367.284-1.985a10.443 10.443 0 0 0 2.77-6.867 25.857 25.857 0 0 1-.175-2.994c.018-.134-.149-.181-.244-.068-.818.988-1.786 1.61-2.348 2.425a6.974 6.974 0 0 0-.723 7.283q-.082.467-.154.962a43.527 43.527 0 0 1-2.545-7.363c.215-.625.429-1.208.65-1.765a9.846 9.846 0 0 0 3.946-5.894 24.569 24.569 0 0 1 .41-2.865c.04-.134-.108-.2-.216-.114a12.278 12.278 0 0 1-1.433.954 7.119 7.119 0 0 0-1.236.866 6.739 6.739 0 0 0-2.094 6.7c-.108.268-.216.552-.324.837a43.031 43.031 0 0 1-.778-4.948c-.095-.939-.154-1.879-.186-2.83.32-.529.637-1.028.956-1.508a9.263 9.263 0 0 0 4.853-4.724 24.857 24.857 0 0 1 .944-2.618c.062-.107-.059-.209-.181-.149a11.738 11.738 0 0 1-1.53.612 6.321 6.321 0 0 0-1.324.568 6.9 6.9 0 0 0-2.61 2.743 6.518 6.518 0 0 0-.67 3.115q-.237.35-.468.715a43.638 43.638 0 0 1 .669-7.838c.19-.2.376-.4.57-.593l.067-.067c.2-.2.4-.382.582-.574a10.512 10.512 0 0 0 1.434-.401 8.657 8.657 0 0 0 1.526-.72 9.331 9.331 0 0 0 2.523-2.319 6.678 6.678 0 0 0 .617-1.074 5.645 5.645 0 0 1 .782-1.2c.08-.09-.015-.211-.14-.176-1.085.3-2.082.247-2.9.537a6.7 6.7 0 0 0-2.982 2.043 6.276 6.276 0 0 0-1.242 2.772c-.207.2-.411.4-.611.6a42.89 42.89 0 0 1 1.48-5.4q.376-1.082.8-2.147c.509-.345.993-.659 1.464-.949a8.133 8.133 0 0 0 5.8-2.1 25.065 25.065 0 0 1 1.757-1.869c.091-.068.026-.2-.1-.193-1.072.068-2-.172-2.817-.059a6.353 6.353 0 0 0-3.18 1.314 5.948 5.948 0 0 0-1.714 2.332c-.251.154-.509.315-.77.484a44.149 44.149 0 0 1 2.733-5.261c.344-.566.7-1.122 1.072-1.672.5-.207 1.045-.412 1.676-.639a7.7 7.7 0 0 0 5.812-.804 6.3 6.3 0 0 0 .911-.671c.158-.134.319-.255.5-.382a4.6 4.6 0 0 1 .588-.341c.1-.047.063-.184-.053-.2a9.248 9.248 0 0 1-1.394-.34 5.917 5.917 0 0 0-1.212-.266 7.022 7.022 0 0 0-1.724.091 5.429 5.429 0 0 0-3.537 2.323c-.342.122-.659.236-.957.349a42.994 42.994 0 0 1 3.577-4.418 7.139 7.139 0 0 0 2.88-.894 7.367 7.367 0 0 0 2.3-2.281 3.912 3.912 0 0 0 .3-.545c.094-.193.179-.4.273-.615a6.083 6.083 0 0 1 .728-1.31.129.129 0 0 0 .005-.149.124.124 0 0 0-.137-.052 8.608 8.608 0 0 1-1.488.268c-.233.028-.462.055-.681.093a3.688 3.688 0 0 0-.617.165 6.109 6.109 0 0 0-2.8 2.042 5.791 5.791 0 0 0-1.074 2.979 40.784 40.784 0 0 0-3.756 4.349c.021-.323.049-.671.08-1.036a8.8 8.8 0 0 0 1.463-2.508 8.875 8.875 0 0 0 .433-1.644 13.143 13.143 0 0 0 .17-1.879 8.6 8.6 0 0 0-.138-1.342 7.311 7.311 0 0 1-.086-1.577c.011-.134-.132-.168-.21-.048a7.54 7.54 0 0 1-.528.717c-.175.221-.348.432-.518.629a7.471 7.471 0 0 0-.878 1.176 7.713 7.713 0 0 0-1.034 3.59 5.879 5.879 0 0 0 .208 1.645 6.614 6.614 0 0 0 .516 1.307c-.061.694-.1 1.291-.132 1.853a43.114 43.114 0 0 0-3.483 5.836q-.275.556-.528 1.121c-.045-.315-.083-.623-.132-.929a9.447 9.447 0 0 0 .985-2.912 11.2 11.2 0 0 0-.132-3.757c-.16-.894-.691-1.745-.847-2.968-.017-.142-.175-.144-.228 0-.479 1.208-1.15 2.093-1.451 3.022a6.9 6.9 0 0 0 1.078 6.816c.069.572.153 1.161.251 1.779a43.427 43.427 0 0 0-2.451 7.69c-.1-.268-.2-.556-.3-.837a10.355 10.355 0 0 0-.576-7.056c-.346-.879-1.075-1.639-1.485-2.874-.049-.142-.208-.111-.237.046a14.425 14.425 0 0 1-.481 1.845 8.217 8.217 0 0 0 .158 5.723 6.291 6.291 0 0 0 .944 1.567 7.177 7.177 0 0 0 1.107 1.076c.091.255.181.511.273.766l.038.114q.154.4.313.805-.254 1.326-.417 2.649a43.494 43.494 0 0 0-.337 5.4q-.244-.382-.473-.766a10.6 10.6 0 0 0-.327-3.37 12.8 12.8 0 0 0-1.77-3.743 10.266 10.266 0 0 0-1.014-1.182 7.578 7.578 0 0 1-1.116-1.448c-.078-.134-.237-.068-.235.1.047 1.459-.264 2.661-.144 3.743a8.8 8.8 0 0 0 1.432 4.129 6.549 6.549 0 0 0 1.311 1.393 7.352 7.352 0 0 0 1.369.855c.313.511.645 1.036 1 1.561a43.8 43.8 0 0 0 .452 5.176q.21 1.414.509 2.818-.338-.341-.652-.679a11.141 11.141 0 0 0-1.063-3.367 13.172 13.172 0 0 0-2.621-3.435 33.487 33.487 0 0 1-2.737-2.235c-.108-.134-.255-.017-.215.154.346 1.489.294 2.796.652 3.875a9.12 9.12 0 0 0 2.348 3.912 7.071 7.071 0 0 0 3.225 1.7c.427.455.878.91 1.368 1.38a43.735 43.735 0 0 0 2.556 7.454c.015.036.032.071.049.106-.286-.188-.563-.372-.83-.557a11.785 11.785 0 0 0-1.809-3.2 13.791 13.791 0 0 0-3.4-2.936 32.661 32.661 0 0 1-3.265-1.709c-.132-.1-.264.038-.19.205.667 1.452.886 2.8 1.474 3.838a9.4 9.4 0 0 0 3.236 3.489 7.276 7.276 0 0 0 3.658 1.015c.528.365 1.1.73 1.714 1.106a42.884 42.884 0 0 0 4.141 6.775l-.554-.208-.455-.185a12.22 12.22 0 0 0-2.537-2.857 14.642 14.642 0 0 0-4.1-2.264 33.135 33.135 0 0 1-3.687-1.032c-.161-.075-.264.094-.149.255.989 1.342 1.493 2.684 2.32 3.615a9.61 9.61 0 0 0 4.049 2.86 7.185 7.185 0 0 0 2.133.382 8.215 8.215 0 0 0 1.82-.166l.318.134.7.268c.335.134.675.246 1.013.36q.354.443.719.875a42.7 42.7 0 0 0 4.756 4.793c-.382-.054-.779-.115-1.195-.184a12.745 12.745 0 0 0-3.2-2.335 15.582 15.582 0 0 0-4.652-1.4 32.067 32.067 0 0 1-3.969-.268c-.179-.043-.251.154-.1.289 1.292 1.166 2.1 2.415 3.136 3.191a9.988 9.988 0 0 0 4.756 2.013 7.68 7.68 0 0 0 4.053-.662c.841.134 1.612.242 2.332.317.914.731 1.846 1.426 2.812 2.069a.478.478 0 0 0 .659-.149.508.508 0 0 0-.112-.691" fill="#c6b54c"/></svg>