<svg xmlns="http://www.w3.org/2000/svg" width="26" height="72"><path d="M25.765 35.475a33.074 33.074 0 0 1-2.734 2.233 13.243 13.243 0 0 0-2.62 3.435 11.238 11.238 0 0 0-1.063 3.365q-.316.341-.651.68.3-1.4.5-2.818a44.29 44.29 0 0 0 .452-5.177c.352-.525.686-1.047 1-1.562a7.361 7.361 0 0 0 1.37-.855 6.543 6.543 0 0 0 1.311-1.391 8.822 8.822 0 0 0 1.432-4.123c.132-1.083-.191-2.281-.146-3.742 0-.168-.156-.236-.233-.1a7.7 7.7 0 0 1-1.117 1.448 10.175 10.175 0 0 0-1.014 1.182 12.782 12.782 0 0 0-1.775 3.737 10.6 10.6 0 0 0-.33 3.365q-.227.382-.472.768a43.275 43.275 0 0 0-.336-5.4c-.109-.879-.25-1.76-.417-2.645.1-.268.21-.537.311-.805l.042-.114c.088-.255.181-.511.272-.766a7.037 7.037 0 0 0 1.106-1.073 6.317 6.317 0 0 0 .945-1.567 8.172 8.172 0 0 0 .152-5.727 15.081 15.081 0 0 1-.481-1.848c-.028-.157-.187-.188-.236-.047-.411 1.236-1.138 2-1.485 2.874a10.356 10.356 0 0 0-.576 7.055c-.1.283-.2.564-.3.837a43.591 43.591 0 0 0-2.456-7.689c.1-.62.186-1.208.251-1.779a6.907 6.907 0 0 0 1.086-6.819c-.3-.929-.965-1.807-1.45-3.02-.054-.134-.21-.134-.228 0-.156 1.229-.687 2.077-.846 2.967a11.2 11.2 0 0 0-.132 3.757 9.439 9.439 0 0 0 .972 2.906c-.037.306-.075.613-.132.929q-.257-.564-.527-1.12a43.16 43.16 0 0 0-3.491-5.84c-.022-.562-.061-1.159-.132-1.853a6.573 6.573 0 0 0 .514-1.307 5.806 5.806 0 0 0 .208-1.646 7.731 7.731 0 0 0-1.032-3.589 7.394 7.394 0 0 0-.878-1.174c-.164-.195-.335-.4-.514-.627a7.876 7.876 0 0 1-.519-.717c-.076-.119-.22-.087-.212.048a7.155 7.155 0 0 1-.086 1.581 8.353 8.353 0 0 0-.14 1.342 12.7 12.7 0 0 0 .17 1.879 8.958 8.958 0 0 0 .45 1.654 8.857 8.857 0 0 0 1.465 2.508c.032.37.059.714.08 1.036a40.814 40.814 0 0 0-3.751-4.349A5.782 5.782 0 0 0 6.27 2.793 6.121 6.121 0 0 0 3.47.747a3.659 3.659 0 0 0-.617-.165C2.634.539 2.406.519 2.166.489A8.456 8.456 0 0 1 .684.221.132.132 0 0 0 .53.31a.127.127 0 0 0 .021.114 6.184 6.184 0 0 1 .734 1.316c.092.213.181.421.273.613a3.847 3.847 0 0 0 .3.545 7.392 7.392 0 0 0 2.3 2.281 7.15 7.15 0 0 0 2.885.894 42.966 42.966 0 0 1 3.576 4.416c-.3-.113-.614-.227-.956-.348a5.431 5.431 0 0 0-3.536-2.324 7.028 7.028 0 0 0-1.725-.091 5.974 5.974 0 0 0-1.218.268 9.29 9.29 0 0 1-1.392.337c-.116.015-.15.152-.053.2a4.629 4.629 0 0 1 .591.341c.179.134.34.255.5.382a6.534 6.534 0 0 0 .912.671 7.692 7.692 0 0 0 5.806.813c.628.224 1.173.429 1.676.639.369.55.726 1.106 1.072 1.672a44.55 44.55 0 0 1 2.733 5.256c-.264-.168-.519-.33-.771-.483a5.93 5.93 0 0 0-1.721-2.337 6.36 6.36 0 0 0-3.183-1.308c-.819-.114-1.743.134-2.816.059-.132-.009-.187.134-.1.192a24.245 24.245 0 0 1 1.756 1.869 8.129 8.129 0 0 0 5.793 2.105c.472.288.955.6 1.463.949q.432 1.057.8 2.147a43.045 43.045 0 0 1 1.478 5.4c-.2-.2-.4-.4-.61-.6a6.275 6.275 0 0 0-1.243-2.771 6.679 6.679 0 0 0-2.974-2.053c-.819-.29-1.815-.242-2.9-.537-.132-.034-.219.087-.14.177a5.534 5.534 0 0 1 .782 1.2 6.633 6.633 0 0 0 .617 1.073 9.325 9.325 0 0 0 2.53 2.315 8.606 8.606 0 0 0 1.523.725 10.534 10.534 0 0 0 1.433.394c.192.187.384.376.583.574l.069.067c.191.195.376.392.57.593a43.75 43.75 0 0 1 .668 7.838c-.156-.243-.311-.482-.469-.715a6.492 6.492 0 0 0-.67-3.114 6.879 6.879 0 0 0-2.61-2.744 6.289 6.289 0 0 0-1.318-.566 11.723 11.723 0 0 1-1.528-.612c-.132-.06-.243.043-.181.149a24.877 24.877 0 0 1 .944 2.618 9.261 9.261 0 0 0 4.856 4.723c.32.482.638.981.957 1.508-.032.939-.092 1.889-.186 2.833a43.289 43.289 0 0 1-.778 4.946q-.161-.431-.324-.837a6.735 6.735 0 0 0-2.094-6.7A7.118 7.118 0 0 0 14 36.517a12.009 12.009 0 0 1-1.434-.954c-.109-.089-.264-.009-.218.114a24.127 24.127 0 0 1 .41 2.865 9.859 9.859 0 0 0 3.949 5.885c.22.556.436 1.139.651 1.764a43.448 43.448 0 0 1-2.546 7.364c-.047-.33-.1-.651-.154-.962a6.973 6.973 0 0 0-.715-7.277c-.563-.813-1.529-1.438-2.348-2.425-.095-.113-.264-.064-.244.068a26.072 26.072 0 0 1-.179 2.991 10.44 10.44 0 0 0 2.769 6.862c.105.617.2 1.276.283 1.986q-.709 1.448-1.523 2.842a42.262 42.262 0 0 1-2.491 3.765l.038-.606.02-.471a7.171 7.171 0 0 0 .82-7.55c-.4-.949-1.254-1.787-1.889-2.967-.073-.134-.251-.134-.264.015a24.68 24.68 0 0 1-.791 2.987 11.6 11.6 0 0 0 .018 4.032 10.752 10.752 0 0 0 .568 1.938 12.842 12.842 0 0 0 .769 1.61l-.015.369-.047.726c-.021.352-.055.7-.091 1.055q-1.04 1.31-2.178 2.535a41.4 41.4 0 0 1-3.111 3c.108-.372.214-.757.318-1.161a7.378 7.378 0 0 0 2.44-7.467c-.22-1.051-.908-2.092-1.31-3.418-.046-.153-.231-.178-.264-.042a23.774 23.774 0 0 1-1.421 2.839 12.246 12.246 0 0 0-.829 4.086 12.474 12.474 0 0 0 .588 3.891c-.212.805-.427 1.538-.651 2.222Q1.61 70.101.199 71.072a.509.509 0 0 0-.111.691.476.476 0 0 0 .659.158c.961-.639 1.9-1.342 2.811-2.069.722-.075 1.491-.178 2.331-.318a7.685 7.685 0 0 0 4.054.663 10.016 10.016 0 0 0 4.754-2.013c1.038-.777 1.846-2.026 3.142-3.191.148-.134.078-.333-.1-.288a32.256 32.256 0 0 1-3.972.268 15.532 15.532 0 0 0-4.649 1.4 12.68 12.68 0 0 0-3.205 2.335c-.415.068-.812.134-1.2.184A42.594 42.594 0 0 0 9.467 64.1c.244-.287.483-.581.719-.876.337-.114.679-.231 1.014-.36l.7-.268.318-.134a8.3 8.3 0 0 0 1.821.166 7.2 7.2 0 0 0 2.125-.382 9.589 9.589 0 0 0 4.055-2.859c.827-.931 1.332-2.269 2.32-3.616.113-.154.011-.325-.152-.255a33.239 33.239 0 0 1-3.684 1.037 14.658 14.658 0 0 0-4.087 2.26 12.21 12.21 0 0 0-2.537 2.857l-.455.187-.554.208a42.957 42.957 0 0 0 4.14-6.775c.612-.376 1.177-.739 1.714-1.106a7.292 7.292 0 0 0 3.66-1.014 9.393 9.393 0 0 0 3.234-3.489c.588-1.036.807-2.384 1.477-3.838.076-.166-.054-.306-.19-.2a32.788 32.788 0 0 1-3.262 1.7 13.854 13.854 0 0 0-3.4 2.936 11.786 11.786 0 0 0-1.815 3.212c-.264.185-.542.37-.829.558l.049-.106a44.008 44.008 0 0 0 2.555-7.45c.485-.468.937-.925 1.365-1.379a7.051 7.051 0 0 0 3.226-1.7 9.134 9.134 0 0 0 2.347-3.914c.353-1.084.3-2.387.645-3.877.042-.17-.105-.268-.215-.153" fill="#c6b54c"/></svg>