<svg xmlns="http://www.w3.org/2000/svg" width="90" height="50"><path fill="none" d="M0 0h90v50H0z"/><path d="M41.75 38.142a15.222 15.222 0 0 1 15-15.429 15.222 15.222 0 0 1 15 15.429h-30Z" fill="#626a6f"/><path d="M71.75 39.142h-30a1 1 0 0 1-1-1 16.53 16.53 0 0 1 4.675-11.6 15.944 15.944 0 0 1 5.087-3.53 15.558 15.558 0 0 1 6.238-1.3h.008a15.518 15.518 0 0 1 6.235 1.3 15.924 15.924 0 0 1 5.08 3.527 16.564 16.564 0 0 1 4.675 11.6 1 1 0 0 1-1 1Zm-28.968-2h27.935a14.534 14.534 0 0 0-4.076-9.21 13.687 13.687 0 0 0-9.882-4.218h-.007a13.718 13.718 0 0 0-9.893 4.219 14.5 14.5 0 0 0-4.077 9.209Z" fill="#636b6f"/><path d="M51.607 24.857 56.75 36c0-.143 5.143-11.143 5.143-11.143a6.81 6.81 0 0 0-5.143-1.714 8.174 8.174 0 0 0-5.143 1.714Z" fill="#fff"/><path d="M55.036 23.143h3.429l-.858 2.571h-1.714Z" fill="#626a6f"/><path d="M55.893 25.714h1.715l1.714 11.143h-5.143Z" fill="#626a6f"/><g transform="translate(47.749 4)"><circle cx="9" cy="9" r="9" fill="#fff"/><path d="M9-1A10 10 0 1 1-1 9 10.011 10.011 0 0 1 9-1Zm0 18a8 8 0 1 0-8-8 8.009 8.009 0 0 0 8 8Z" fill="#636b6f"/></g><path d="M82 39.335H9a1 1 0 0 1-1-1 1 1 0 0 1 1-1h73a1 1 0 0 1 1 1 1 1 0 0 1-1 1Z" fill="#626a6f"/><g transform="translate(12.25 11.273)"><circle cx="9.857" cy="9.857" r="9.857" transform="translate(5.143)" fill="#fff"/><path d="M15-1A10.857 10.857 0 0 1 25.857 9.857 10.857 10.857 0 0 1 15 20.714 10.857 10.857 0 0 1 4.143 9.857 10.857 10.857 0 0 1 15-1Zm0 19.714a8.857 8.857 0 1 0-8.857-8.857A8.867 8.867 0 0 0 15 18.714Z" fill="#636b6f"/><path d="M0 35.143c0-8.051 7.144-14.571 15.428-14.571A14.422 14.422 0 0 1 30 35.143" fill="#fff"/><path d="M30 36.143a1 1 0 0 1-1-1 13.422 13.422 0 0 0-13.572-13.571 14.9 14.9 0 0 0-10.138 4A13.048 13.048 0 0 0 1 35.145a1 1 0 0 1-2 0 14.515 14.515 0 0 1 1.337-6.089 15.719 15.719 0 0 1 3.586-4.947 16.9 16.9 0 0 1 11.5-4.537A15.422 15.422 0 0 1 31 35.143a1 1 0 0 1-1 1Z" fill="#636b6f"/></g></svg>