<svg xmlns="http://www.w3.org/2000/svg" width="90" height="50"><path fill="none" d="M0 0h90v50H0z"/><path d="M50.763.994H22.922v11.932h27.841Z" fill="#e0eef6"/><path d="M21.928.994A.994.994 0 0 1 22.922 0h27.841a.994.994 0 0 1 .994.994v11.932a.994.994 0 0 1-.994.994H22.922a.994.994 0 0 1-.994-.994Zm1.989.994v9.943h25.852V1.989Z" fill="#636b6f" fill-rule="evenodd"/><path d="M39.826 12.926H33.86v33.1h5.966Z" fill="#fff"/><path d="M32.865 12.926a.994.994 0 0 1 .994-.994h5.966a.994.994 0 0 1 .994.994v33.1a.994.994 0 0 1-.994.994h-5.966a.994.994 0 0 1-.994-.994Zm1.989.994v31.112h3.977V13.921Z" fill="#636b6f" fill-rule="evenodd"/><path d="M30.434 10.105a3.128 3.128 0 0 0 1.355-.28 2.491 2.491 0 0 0 .953-.782 2.349 2.349 0 0 0 .432-1.163v-.047h-1.285l-.009.039a1.336 1.336 0 0 1-.765.979 1.616 1.616 0 0 1-.677.135 1.414 1.414 0 0 1-.861-.267 1.69 1.69 0 0 1-.559-.76 3.21 3.21 0 0 1-.192-1.166V6.78a3.188 3.188 0 0 1 .192-1.167 1.661 1.661 0 0 1 .559-.756 1.407 1.407 0 0 1 .856-.267 1.512 1.512 0 0 1 .677.149 1.364 1.364 0 0 1 .507.419 1.454 1.454 0 0 1 .267.62v.031h1.28v-.052a2.371 2.371 0 0 0-.428-1.18 2.521 2.521 0 0 0-.966-.808 3 3 0 0 0-1.336-.289 3 3 0 0 0-1.582.4 2.625 2.625 0 0 0-1.018 1.14 4.027 4.027 0 0 0-.358 1.76v.009a4.027 4.027 0 0 0 .358 1.765 2.644 2.644 0 0 0 1.023 1.149 2.989 2.989 0 0 0 1.577.402ZM33.738 9.943h1.385l1.542-5.047h.385V3.638h-1.122Zm1.171-1.529h3.562l-.323-.988h-2.915Zm3.373 1.529h1.389l-2.192-6.305h-.734v1.258ZM40.742 9.943h1.32V7.636h1.079l1.179 2.307h1.494l-1.328-2.5a1.687 1.687 0 0 0 .834-.699 2.026 2.026 0 0 0 .3-1.092v-.009a2.063 2.063 0 0 0-.267-1.071 1.711 1.711 0 0 0-.769-.69 2.765 2.765 0 0 0-1.219-.245h-2.623Zm1.319-3.264v-2.01h1.145a1.087 1.087 0 0 1 .782.271.961.961 0 0 1 .284.73v.009a.966.966 0 0 1-.28.734 1.07 1.07 0 0 1-.772.266Z" fill="#636b6f"/><path d="M81.587 29.119H39.826v16.9h41.761Z" fill="#fff"/><path d="M83.576 22.159H37.837v6.96h45.739Z" fill="#e0eef6"/><path d="M36.843 22.159a.994.994 0 0 1 .994-.994h45.739a.994.994 0 0 1 .994.994v6.96a.994.994 0 0 1-.994.994H37.837a.994.994 0 0 1-.994-.994Zm1.989.994v4.972h43.75v-4.971Z" fill="#636b6f" fill-rule="evenodd"/><path d="M65.905 33.18H43.371v13.257h22.534Z" fill="#ced1d2"/><path d="M42.874 32.683h23.534v14.252H42.874Zm.994.994V45.94h21.54V33.677ZM68.727 34.672h10.275v12.263H68.727Zm.994.994v10.275h8.286V35.666Z" fill="#636b6f" fill-rule="evenodd"/><path d="M38.831 29.119a.994.994 0 0 1 .994-.994h41.762a.994.994 0 0 1 .994.994v16.906a.994.994 0 0 1-.994.994H39.825a.994.994 0 0 1-.994-.994Zm1.989.994v14.912h39.772V30.114Z" fill="#636b6f" fill-rule="evenodd"/><path d="M45.869 44.668s1.16-.363 1.264-.57a27.506 27.506 0 0 0-.257-3.649c-.069-.342-.862-2.65-1.344-3.888a21.063 21.063 0 0 0-2.2-4.27c-.43-.5-6.6-1.609-10.628-1.609a39.429 39.429 0 0 0-9.41 1.271c-3.348.961-7.813 3.617-8.675 4s-7.884 2.585-8.261 3a16.92 16.92 0 0 0-1.652 3.031 21.013 21.013 0 0 0 .138 2.822c.689.827 2.792 1.262 3.4 1.326l8.356-.156c4.412-.1 15.346-.37 20.73-.462Z" fill="#fff"/><path d="m8.201 47.028-.053-.005a5.665 5.665 0 0 1-3.554-2.026l-.151-.181-.525-2.83.051-.209a6.955 6.955 0 0 1 1.783-3.5c.71-.636 2.769-1.35 6.57-2.527.843-.261 1.714-.531 1.929-.625.175-.077.61-.31 1.113-.58a44.424 44.424 0 0 1 7.677-3.459 40.581 40.581 0 0 1 9.657-1.3 45.5 45.5 0 0 1 6.81.627c3.94.637 4.321 1.083 4.5 1.3a21.779 21.779 0 0 1 2.358 4.528c.459 1.178 1.3 3.591 1.388 4.037.055.273.154 1.322.208 1.981.153 1.885.085 2.022-.028 2.248a1.919 1.919 0 0 1-1.152.8c-.326.126-.635.222-.648.226l-.088.028-8.675.854h-.033c-3.686.063-9.955.211-14.993.329-2.33.055-4.343.1-5.733.133Zm-2.075-3.017a3.87 3.87 0 0 0 2.152 1.215l8.3-.155c1.386-.03 3.4-.078 5.728-.133 5.024-.118 11.272-.265 14.968-.329l8.415-.828c.2-.064.4-.139.565-.205-.034-.835-.205-2.657-.257-2.95-.073-.318-.823-2.514-1.3-3.739a22.19 22.19 0 0 0-1.98-3.925 41.132 41.132 0 0 0-10.018-1.376 38.516 38.516 0 0 0-9.162 1.236 43.046 43.046 0 0 0-7.323 3.314c-.6.323-1 .536-1.237.64-.3.13-.931.329-2.122.7-1.109.343-2.489.771-3.665 1.185a8.67 8.67 0 0 0-2.236.963 5.08 5.08 0 0 0-1.195 2.417Z" fill="#636b6f"/><path d="M41.323 45.455a3.4 3.4 0 1 1-3.4-3.4 3.4 3.4 0 0 1 3.4 3.4" fill="#ced1d2"/><path d="M37.923 41.159a4.3 4.3 0 1 1-4.294 4.3 4.3 4.3 0 0 1 4.295-4.3Zm0 6.8a2.5 2.5 0 1 0-2.5-2.5 2.5 2.5 0 0 0 2.503 2.495Z" fill="#636b6f"/><path d="M18.323 45.465a3.4 3.4 0 1 1-3.4-3.4 3.4 3.4 0 0 1 3.4 3.4" fill="#ced1d2"/><path d="M14.923 41.169a4.3 4.3 0 1 1-4.294 4.3 4.3 4.3 0 0 1 4.295-4.3Zm0 6.8a2.5 2.5 0 1 0-2.5-2.5 2.5 2.5 0 0 0 2.503 2.495Z" fill="#636b6f"/></svg>