<svg xmlns="http://www.w3.org/2000/svg" width="90" height="50"><defs><clipPath id="a"><path fill="none" d="M0 0h31v24H0z"/></clipPath></defs><path fill="none" d="M0 0h90v50H0z"/><path d="M41.136 48H18.864A1.863 1.863 0 0 1 17 46.139V3.861A1.863 1.863 0 0 1 18.864 2h22.272A1.862 1.862 0 0 1 43 3.861v42.278A1.862 1.862 0 0 1 41.136 48" fill="#ced1d2"/><path d="M19 1h22a3 3 0 0 1 3 3v42a3 3 0 0 1-3 3H19a3 3 0 0 1-3-3V4a3 3 0 0 1 3-3Zm22 46a1 1 0 0 0 1-1V4a1 1 0 0 0-1-1H19a1 1 0 0 0-1 1v42a1 1 0 0 0 1 1Z" fill="#636b6f"/><path fill="#fff" d="M27.636 5.538h4.727"/><path d="M32.363 6.538h-4.727a1 1 0 0 1-1-1 1 1 0 0 1 1-1h4.727a1 1 0 0 1 1 1 1 1 0 0 1-1 1Z" fill="#636b6f"/><path fill="#fff" d="M17 8.487h25.999v31.257H17z"/><path d="M16 7.487h28v33.257H16Zm26 2H18v29.257h24Z" fill="#636b6f"/><path d="M20.058 14.738h-.49l.571 1.153-.608 1.226h.5l.367-.819.364.819h.5l-.608-1.226.571-1.153h-.49l-.334.746Zm1.762 0h-.49l.571 1.153-.608 1.226h.5l.367-.819.364.819h.5l-.608-1.226.571-1.153h-.49l-.334.746Zm1.762 0h-.495l.571 1.153-.608 1.226h.5l.367-.819.364.819h.5l-.608-1.226.571-1.153h-.49l-.334.746Zm1.279 1.25v.486h.692v-.486Zm1.3-1.25h-.49l.571 1.153-.609 1.226h.5l.367-.819.364.819h.5l-.608-1.226.571-1.153h-.49l-.334.746Zm1.762 0h-.49l.571 1.153-.609 1.226h.5l.367-.819.364.819h.5l-.608-1.226.569-1.153h-.49l-.334.746Zm1.762 0h-.49l.571 1.153-.609 1.226h.5l.367-.819.364.819h.5l-.608-1.226.571-1.153h-.49l-.334.746Zm1.762 0h-.49l.571 1.153-.61 1.226h.5l.367-.819.364.819h.5l-.608-1.226.571-1.153h-.49l-.334.746Zm1.279 1.25v.486h.69v-.486Zm1.3-1.25h-.492l.571 1.153-.608 1.226h.5l.367-.819.364.819h.5l-.614-1.226.573-1.153h-.49l-.334.746Zm1.762 0h-.49l.569 1.153-.608 1.226h.5l.367-.819.361.819h.5l-.612-1.226.571-1.153h-.49l-.334.746Zm1.762 0h-.49l.571 1.153-.611 1.226h.5l.367-.82.364.819h.5l-.614-1.225.571-1.153h-.49l-.331.746Zm1.762 0h-.49l.565 1.153-.6 1.226h.5l.367-.819.364.819h.5l-.62-1.226.571-1.153h-.49l-.334.746Z" fill="#636b6f"/><g transform="translate(16.563 1)"><ellipse cx="6" cy="5.988" rx="6" ry="5.988" transform="translate(7.457 21.867)" fill="#e0eef6"/><path d="M15.522 29.092a2.967 2.967 0 0 0-.478-.231l-.97.7a4.477 4.477 0 0 1-2.1-2.6l.811-.655c-.049-.438-.169-1.6-.933-1.7-.662-.075-1.177.566-1.324 1.138l-.071.538a7.221 7.221 0 0 0 .533 1.691 6.258 6.258 0 0 0 .68 1.105 6.022 6.022 0 0 0 1.987 1.64 2.958 2.958 0 0 0 1.043.373 1.56 1.56 0 0 0 1.666-.885 2.61 2.61 0 0 0 .153-.384 4.773 4.773 0 0 0-1-.727" fill="#636b6f"/></g><g transform="translate(48 25)" clip-path="url(#a)"><path d="M28.213 22.909H2.781a1.713 1.713 0 0 1-1.7-1.718V2.811a1.713 1.713 0 0 1 1.7-1.72h25.432a1.713 1.713 0 0 1 1.705 1.72v18.38a1.713 1.713 0 0 1-1.705 1.72" fill="#fff"/><path d="M1.081 7.313v13.668a1.716 1.716 0 0 0 .626 1.322l8.22-9.136ZM29.918 20.982v-13.3l-8.229 5.446 7.934 8.817a1.724 1.724 0 0 0 .3-.967" fill="#fff"/><path d="M3.446.091h24.107a3.369 3.369 0 0 1 3.365 3.365v17.088a3.369 3.369 0 0 1-3.365 3.365H3.446a3.369 3.369 0 0 1-3.365-3.365V3.456A3.369 3.369 0 0 1 3.446.091Zm24.107 21.818a1.367 1.367 0 0 0 1.365-1.365V3.456a1.367 1.367 0 0 0-1.365-1.365H3.446a1.367 1.367 0 0 0-1.365 1.365v17.088a1.367 1.367 0 0 0 1.365 1.365Z" fill="#636b6f"/><path d="M15.719 17.018a6 6 0 0 1-3.321-1.016L.529 8.147a1 1 0 0 1 1.1-1.668l11.872 7.855a3.913 3.913 0 0 0 4.436 0L29.31 6.806a1 1 0 1 1 1.1 1.668l-11.37 7.527a6 6 0 0 1-3.321 1.017Z" fill="#636b6f"/><path d="M1.675 23.234a.747.747 0 0 1-.5-.192.75.75 0 0 1-.058-1.06l8.12-9.023a.75.75 0 0 1 1.059-.058.75.75 0 0 1 .056 1.058l-8.119 9.026a.748.748 0 0 1-.558.249ZM28.927 22.49a.748.748 0 0 1-.569-.261l-7.127-8.281a.75.75 0 0 1 .079-1.057.75.75 0 0 1 1.057.079l7.132 8.281a.75.75 0 0 1-.568 1.239Z" fill="#636b6f"/></g></svg>