<svg xmlns="http://www.w3.org/2000/svg" width="90" height="50"><path fill="none" d="M0 0h90v50H0z"/><path d="M53.514 47.869H36.49l2.322-8.512h12.381Z" fill="#ced1d2"/><path d="M54.823 48.869H35.181l2.867-10.512h13.909Zm-17.024-2h14.406l-1.776-6.512H39.576Z" fill="#636b6f"/><path d="M74.739 36.047H15.262V4.037A1.942 1.942 0 0 1 17.092 2h55.817a1.942 1.942 0 0 1 1.83 2.037Z" fill="#626a6f"/><path d="M75.739 37.047H14.262V4.037A2.942 2.942 0 0 1 17.092 1h55.817a2.942 2.942 0 0 1 2.83 3.037Zm-59.477-2h57.477V4.037A.964.964 0 0 0 72.909 3H17.092a.964.964 0 0 0-.83 1.037Z" fill="#636b6f"/><path d="M72.909 41.722H17.092a1.942 1.942 0 0 1-1.83-2.037v-3.638h59.477v3.638a1.942 1.942 0 0 1-1.83 2.037" fill="#ced1d2"/><path d="M72.909 42.722H17.092a2.942 2.942 0 0 1-2.83-3.037v-4.638h61.477v4.638a2.942 2.942 0 0 1-2.83 3.037Zm-56.647-5.675v2.638a.964.964 0 0 0 .83 1.037h55.817a.964.964 0 0 0 .83-1.037v-2.638Z" fill="#636b6f"/><path fill="#e0eef6" d="M18.099 4.838h53.804V33.21H18.099z"/><path d="M58.242 49H31.761a1 1 0 0 1-1-1 1 1 0 0 1 1-1h26.481a1 1 0 0 1 1 1 1 1 0 0 1-1 1ZM30.419 8.821a.586.586 0 0 1-.588.6.612.612 0 0 1-.609-.6.586.586 0 0 1 .588-.6.611.611 0 0 1 .609.6M32.14 8.821a.586.586 0 0 1-.588.6.612.612 0 0 1-.609-.6.586.586 0 0 1 .588-.6.611.611 0 0 1 .609.6M33.86 8.821a.586.586 0 0 1-.588.6.612.612 0 0 1-.609-.6.586.586 0 0 1 .588-.6.611.611 0 0 1 .609.6" fill="#636b6f"/><path d="M63.281 29.897h-36.56a.816.816 0 0 1-.873-.745V8.418a.816.816 0 0 1 .873-.745h36.56a.816.816 0 0 1 .873.745v20.73a.816.816 0 0 1-.873.745" fill="#fff"/><path d="M63.281 30.397h-36.56a1.315 1.315 0 0 1-1.373-1.249V8.418a1.315 1.315 0 0 1 1.373-1.245h36.56a1.315 1.315 0 0 1 1.373 1.245v20.73a1.315 1.315 0 0 1-1.373 1.249ZM26.721 8.173c-.22 0-.373.129-.373.245v20.73c0 .116.153.245.373.245h36.56c.22 0 .373-.129.373-.245V8.418c0-.116-.153-.245-.373-.245Z" fill="#636b6f"/><path d="M27.39 7.173h35.222a2.044 2.044 0 0 1 2.042 2.042v19.14a2.044 2.044 0 0 1-2.042 2.042H27.39a2.044 2.044 0 0 1-2.042-2.042V9.215a2.044 2.044 0 0 1 2.042-2.042Zm35.222 22.224a1.043 1.043 0 0 0 1.042-1.042V9.215a1.043 1.043 0 0 0-1.042-1.042H27.39a1.043 1.043 0 0 0-1.042 1.042v19.14a1.043 1.043 0 0 0 1.042 1.042Z" fill="#636b6f"/><path d="M64.154 11.603H25.848V8.548a.872.872 0 0 1 .873-.873h36.56a.872.872 0 0 1 .873.873Z" fill="#ced1d2"/><path d="M64.654 12.103H25.348V8.548a1.374 1.374 0 0 1 1.373-1.373h36.56a1.374 1.374 0 0 1 1.373 1.373Zm-38.306-1h37.306V8.548a.373.373 0 0 0-.373-.373h-36.56a.373.373 0 0 0-.373.373Z" fill="#636b6f"/><path d="M64.654 12.103H25.348V8.548a1.374 1.374 0 0 1 1.373-1.373h36.56a1.374 1.374 0 0 1 1.373 1.373Zm-38.306-1h37.306V8.548a.373.373 0 0 0-.373-.373h-36.56a.373.373 0 0 0-.373.373ZM42.546 16.331h-13.26a.5.5 0 0 1-.5-.5.5.5 0 0 1 .5-.5h13.26a.5.5 0 0 1 .5.5.5.5 0 0 1-.5.5ZM42.546 18.809h-13.26a.5.5 0 0 1-.5-.5.5.5 0 0 1 .5-.5h13.26a.5.5 0 0 1 .5.5.5.5 0 0 1-.5.5ZM42.546 21.287h-13.26a.5.5 0 0 1-.5-.5.5.5 0 0 1 .5-.5h13.26a.5.5 0 0 1 .5.5.5.5 0 0 1-.5.5ZM42.546 23.766h-13.26a.5.5 0 0 1-.5-.5.5.5 0 0 1 .5-.5h13.26a.5.5 0 0 1 .5.5.5.5 0 0 1-.5.5ZM42.546 26.244h-13.26a.5.5 0 0 1-.5-.5.5.5 0 0 1 .5-.5h13.26a.5.5 0 0 1 .5.5.5.5 0 0 1-.5.5ZM46.453 22.479h-.03a2.858 2.858 0 0 1-1.561-.656c-.11-.133-.165-.2-.165-1.341 0-.1 0-.186.307-.756a3.958 3.958 0 0 1 .422-.677c.143-.157.35-.25 2.22-.88.4-.133.843-.284.934-.324.056-.025.218-.112.389-.2a16.178 16.178 0 0 1 2.81-1.265 14.832 14.832 0 0 1 3.54-.478 16.61 16.61 0 0 1 2.49.229c1.486.24 1.634.413 1.732.528a8.016 8.016 0 0 1 .882 1.687c.144.37.471 1.294.51 1.489.022.113.059.511.077.736.055.672.038.771-.026.9-.085.17-.236.3-.756.462l-.049.015-3.181.311c-1.3.022-3.518.074-5.3.116l-2.192.051Zm-.739-1.239a2.711 2.711 0 0 0 .784.238l2.987-.056 2.189-.05c1.773-.042 3.977-.094 5.285-.116l3.016-.3.059-.02c-.019-.31-.065-.8-.083-.914-.036-.139-.3-.9-.462-1.323a8.473 8.473 0 0 0-.664-1.337 15.451 15.451 0 0 0-3.505-.468 13.687 13.687 0 0 0-3.267.44 15.412 15.412 0 0 0-2.613 1.185c-.221.119-.367.2-.46.238-.126.055-.452.166-1.017.356s-1.548.521-1.831.65a8.452 8.452 0 0 0-.436.8c-.001.217.005.505.015.677Z" fill="#636b6f"/><path d="M59.347 21.588a1.228 1.228 0 1 1-1.228-1.227 1.229 1.229 0 0 1 1.228 1.227" fill="#cbcbcb"/><path d="M58.12 23.313a1.728 1.728 0 1 1 1.727-1.728 1.731 1.731 0 0 1-1.728 1.728Zm0-2.456a.728.728 0 1 0 .728.727.728.728 0 0 0-.73-.723Z" fill="#636b6f"/><path d="M58.118 19.861a1.728 1.728 0 1 1-1.727 1.728 1.73 1.73 0 0 1 1.727-1.728Zm0 2.456a.728.728 0 1 0-.728-.728.729.729 0 0 0 .729.724Z" fill="#636b6f"/><path d="M49.203 21.591a1.228 1.228 0 1 1-1.228-1.227 1.229 1.229 0 0 1 1.228 1.227" fill="#cbcbcb"/><path d="M47.976 23.32a1.728 1.728 0 1 1 1.727-1.728 1.731 1.731 0 0 1-1.728 1.728Zm0-2.456a.728.728 0 1 0 .728.727.728.728 0 0 0-.73-.727Z" fill="#636b6f"/><path d="M47.974 19.864a1.728 1.728 0 1 1-1.727 1.728 1.73 1.73 0 0 1 1.727-1.728Zm0 2.456a.728.728 0 1 0-.728-.728.729.729 0 0 0 .729.728Z" fill="#636b6f"/></svg>