<svg xmlns="http://www.w3.org/2000/svg" width="90" height="50"><path fill="none" d="M0 0h90v50H0z"/><g transform="translate(43.124 -1)"><path d="M.377 40.577A17.576 17.576 0 0 1 17.7 22.763a17.575 17.575 0 0 1 17.32 17.814H.377Z" fill="#626a6f"/><path d="M35.016 41.577H.377a1 1 0 0 1-1-1 19.1 19.1 0 0 1 1.434-7.312 18.782 18.782 0 0 1 3.92-5.978 18.255 18.255 0 0 1 5.824-4.038 17.81 17.81 0 0 1 7.145-1.486h.009a17.764 17.764 0 0 1 7.134 1.484 18.232 18.232 0 0 1 5.819 4.04 18.807 18.807 0 0 1 3.917 5.979 19.153 19.153 0 0 1 1.437 7.311 1 1 0 0 1-1 1Zm-33.611-2h32.582a16.944 16.944 0 0 0-4.76-10.9 15.957 15.957 0 0 0-11.522-4.914H17.7a15.993 15.993 0 0 0-11.535 4.918A16.905 16.905 0 0 0 1.4 39.577Z" fill="#636b6f"/><path d="m11.382 25.237 5.938 12.866c0-.165 5.938-12.866 5.938-12.866a7.862 7.862 0 0 0-5.937-1.979 9.438 9.438 0 0 0-5.939 1.979Z" fill="#fff"/><path d="M15.34 23.258h3.959l-.99 2.969H16.33ZM16.33 26.227h1.98l1.979 12.866h-5.938Z" fill="#626a6f"/><g transform="translate(6.875 2.5)"><circle cx="10" cy="10" r="10" fill="#fff"/><path d="M10-1a11 11 0 0 1 11 11 11 11 0 0 1-11 11A11 11 0 0 1-1 10 11 11 0 0 1 10-1Zm0 20a9 9 0 1 0-9-9 9.01 9.01 0 0 0 9 9Z" fill="#636b6f"/></g><circle cx="5.938" cy="5.938" r="5.938" transform="translate(26.722 32.165)" fill="#fff"/><path d="M32.66 34.165a3.938 3.938 0 1 0 3.938 3.938 3.943 3.943 0 0 0-3.938-3.938m0-2a5.938 5.938 0 1 1-5.938 5.938 5.938 5.938 0 0 1 5.938-5.938Z" fill="#636a6f"/></g><g transform="translate(9 8.412)"><rect width="43.546" height="29.691" rx="3" fill="#ced1d2"/><path d="M3-1h37.546a4 4 0 0 1 4 4v23.691a4 4 0 0 1-4 4H3a4 4 0 0 1-4-4V3a4 4 0 0 1 4-4Zm37.546 29.691a2 2 0 0 0 2-2V3a2 2 0 0 0-2-2H3a2 2 0 0 0-2 2v23.691a2 2 0 0 0 2 2Z" fill="#636b6f"/><rect width="9.897" height="14.845" rx="2" transform="translate(16.825 22.763)" fill="#ced1d2"/><path d="M18.825 21.763h5.9a3 3 0 0 1 3 3v10.845a3 3 0 0 1-3 3h-5.9a3 3 0 0 1-3-3V24.763a3 3 0 0 1 3-3Zm5.9 14.845a1 1 0 0 0 1-1V24.763a1 1 0 0 0-1-1h-5.9a1 1 0 0 0-1 1v10.845a1 1 0 0 0 1 1Z" fill="#636b6f"/><rect width="31.67" height="4.948" rx="2.474" transform="translate(5.938 34.639)" fill="#ced1d2"/><path d="M8.412 33.639h26.726a3.474 3.474 0 0 1 0 6.948H8.412a3.474 3.474 0 0 1 0-6.948Zm26.726 4.948a1.474 1.474 0 0 0 0-2.948H8.412a1.474 1.474 0 0 0 0 2.948Z" fill="#636b6f"/></g></svg>