<svg xmlns="http://www.w3.org/2000/svg" width="90" height="50"><path fill="none" d="M0 0h90v50H0z"/><path d="M53.114 34.172s1.379-.432 1.5-.677a32.693 32.693 0 0 0-.303-4.343c-.082-.407-1.024-3.149-1.6-4.622a25.035 25.035 0 0 0-2.619-5.075c-.511-.6-7.839-1.912-12.633-1.912a46.867 46.867 0 0 0-11.188 1.516c-3.98 1.142-9.287 4.3-10.311 4.75s-9.372 3.073-9.82 3.565a20.112 20.112 0 0 0-1.964 3.6 24.977 24.977 0 0 0 .164 3.354c.819.983 3.319 1.5 4.04 1.576l9.932-.186c5.244-.115 18.241-.44 24.641-.549Z" fill="#fff"/><path d="m8.34 36.907-.062-.007c-.034 0-3.45-.427-4.7-1.93-.252-.3-.321-.6-.369-2.263-.022-.775-.027-1.575-.027-1.731 0-.21 0-.449.932-2.183a13.849 13.849 0 0 1 1.295-2.1c.347-.381.968-.676 7.013-2.712 1.384-.466 2.815-.948 3.14-1.092.211-.093.728-.37 1.327-.691a52.75 52.75 0 0 1 9.112-4.1 48.156 48.156 0 0 1 11.458-1.546 54.006 54.006 0 0 1 8.083.745c4.658.753 5.1 1.27 5.311 1.518a25.815 25.815 0 0 1 2.791 5.362c.545 1.4 1.54 4.259 1.646 4.787.064.321.183 1.565.246 2.346.181 2.222.1 2.386-.026 2.636-.209.419-.647.653-1.333.917-.386.148-.75.263-.766.268l-.1.031-10.3 1.014h-.04c-4.381.075-11.832.25-17.82.391-2.771.065-5.163.122-6.816.158Zm-3.076-3.071a8.191 8.191 0 0 0 3.167 1.069l9.866-.185c1.648-.036 4.04-.092 6.809-.158 5.972-.141 13.4-.315 17.792-.391l10.013-.985c.256-.083.525-.182.728-.266-.036-.975-.246-3.224-.309-3.566-.083-.369-.977-2.986-1.549-4.456a25.757 25.757 0 0 0-2.373-4.7 25.482 25.482 0 0 0-4.545-.993 51.521 51.521 0 0 0-7.4-.662 45.861 45.861 0 0 0-10.912 1.477 51.217 51.217 0 0 0-8.718 3.945c-.714.383-1.185.635-1.466.759-.388.171-1.455.533-3.308 1.157-1.948.656-5.515 1.858-6.23 2.236a25.74 25.74 0 0 0-1.648 3.008c.003.879.034 2.18.083 2.711Z" fill="#636b6f"/><path d="M47.711 35.109a4.037 4.037 0 1 1-4.04-4.037 4.04 4.04 0 0 1 4.04 4.037" fill="#ced1d2"/><path d="M43.67 30.072a5.038 5.038 0 1 1-5.034 5.04 5.044 5.044 0 0 1 5.035-5.04Zm0 8.077a3.038 3.038 0 1 0-3.037-3.037 3.045 3.045 0 0 0 3.041 3.037Z" fill="#636b6f"/><path d="M20.372 35.119a4.037 4.037 0 1 1-4.04-4.037 4.04 4.04 0 0 1 4.04 4.037" fill="#ced1d2"/><path d="M16.331 30.082a5.038 5.038 0 1 1-5.034 5.04 5.044 5.044 0 0 1 5.035-5.04Zm0 8.077a3.038 3.038 0 1 0-3.037-3.037 3.045 3.045 0 0 0 3.041 3.037Z" fill="#636b6f"/><path d="M82.289 39.575s1.379-.432 1.5-.677a32.693 32.693 0 0 0-.303-4.343c-.082-.407-1.024-3.149-1.6-4.622a25.035 25.035 0 0 0-2.619-5.075c-.511-.6-7.839-1.912-12.633-1.912a46.867 46.867 0 0 0-11.188 1.516c-3.98 1.142-9.287 4.3-10.311 4.75s-9.372 3.073-9.82 3.565a20.112 20.112 0 0 0-1.964 3.6 24.977 24.977 0 0 0 .164 3.354c.819.983 3.319 1.5 4.04 1.576l9.932-.186c5.244-.115 18.241-.44 24.641-.549Z" fill="#fff"/><path d="m37.515 42.31-.062-.007c-.034 0-3.45-.427-4.7-1.93-.252-.3-.321-.6-.369-2.263-.022-.775-.027-1.575-.027-1.731 0-.21 0-.449.932-2.183a13.849 13.849 0 0 1 1.295-2.1c.347-.381.968-.676 7.013-2.712 1.384-.466 2.815-.948 3.14-1.092.211-.093.728-.37 1.327-.691a52.75 52.75 0 0 1 9.112-4.1 48.156 48.156 0 0 1 11.458-1.546 54.006 54.006 0 0 1 8.083.745c4.658.753 5.1 1.27 5.311 1.518a25.815 25.815 0 0 1 2.791 5.362c.545 1.4 1.54 4.259 1.646 4.787.064.321.183 1.565.246 2.346.181 2.222.1 2.386-.026 2.636-.209.419-.647.653-1.333.917-.386.148-.75.263-.766.268l-.1.031-10.3 1.014h-.04c-4.381.075-11.832.25-17.82.391-2.771.065-5.163.122-6.816.158Zm-3.076-3.071a8.191 8.191 0 0 0 3.167 1.069l9.866-.185c1.648-.036 4.04-.092 6.809-.158 5.972-.141 13.4-.315 17.792-.391l10.013-.985c.256-.083.525-.182.728-.266-.036-.975-.246-3.224-.309-3.566-.083-.369-.977-2.986-1.549-4.456a25.757 25.757 0 0 0-2.373-4.7 25.482 25.482 0 0 0-4.545-.993 51.521 51.521 0 0 0-7.4-.662 45.861 45.861 0 0 0-10.912 1.477 51.217 51.217 0 0 0-8.718 3.945c-.714.383-1.185.635-1.466.759-.388.171-1.455.533-3.308 1.157-1.948.656-5.515 1.858-6.23 2.236a25.74 25.74 0 0 0-1.648 3.008c.003.879.034 2.18.083 2.711Z" fill="#636b6f"/><path d="M76.886 40.512a4.037 4.037 0 1 1-4.04-4.037 4.04 4.04 0 0 1 4.04 4.037" fill="#ced1d2"/><path d="M72.845 35.475a5.038 5.038 0 1 1-5.034 5.04 5.044 5.044 0 0 1 5.035-5.04Zm0 8.077a3.038 3.038 0 1 0-3.037-3.037 3.045 3.045 0 0 0 3.041 3.037Z" fill="#636b6f"/><path d="M49.547 40.522a4.037 4.037 0 1 1-4.04-4.037 4.04 4.04 0 0 1 4.04 4.037" fill="#ced1d2"/><path d="M45.506 35.485a5.038 5.038 0 1 1-5.034 5.04 5.044 5.044 0 0 1 5.035-5.04Zm0 8.077a3.038 3.038 0 1 0-3.037-3.037 3.045 3.045 0 0 0 3.041 3.037Z" fill="#636b6f"/></svg>