<svg height="80" viewBox="0 0 120 80" width="120" xmlns="http://www.w3.org/2000/svg"><path d="m0 0h120v80h-120z" fill="none"/><path d="m1226.511 354.8-4.646 11.6-1.632 4.031h6.546v7.546s-.159 4.966 4.984 5.258 7.388.3 7.388.3v7.9h24.479v-15.691s11.306-8.828 11.569-18.558-2.707-13.628-2.707-13.628-4.644-9.847-14.468-12.211-18.841 0-23.7 4.979a29.414 29.414 0 0 0 -7.547 12.544 22.549 22.549 0 0 0 -.266 5.93z" fill="#fff" transform="translate(-1208.179 -321.639)"/><path d="m1250.425 329.425a33.549 33.549 0 0 1 7.832.95 20.123 20.123 0 0 1 6.74 3.055 25.255 25.255 0 0 1 4.7 4.254 26.933 26.933 0 0 1 3.657 5.361c.471.679 3.094 4.893 2.843 14.168a17.775 17.775 0 0 1 -2.024 7.425 31.927 31.927 0 0 1 -4.092 6.117 44.174 44.174 0 0 1 -5.453 5.466v15.209a1 1 0 0 1 -1 1h-24.478a1 1 0 0 1 -1-1v-6.92c-1.115-.028-3.2-.1-6.444-.284a5.763 5.763 0 0 1 -5.268-3.31 7.175 7.175 0 0 1 -.659-2.956v-6.536h-5.546a1 1 0 0 1 -.927-1.375l1.632-4.031 4.558-11.376a22.552 22.552 0 0 1 .31-6.005 24.232 24.232 0 0 1 2.265-5.558 34.075 34.075 0 0 1 5.539-7.45c3.846-3.943 9.975-6.204 16.815-6.204zm21.269 14.736a.878.878 0 0 1 -.107-.177 24.958 24.958 0 0 0 -3.44-5.035 23.211 23.211 0 0 0 -4.316-3.894 18.123 18.123 0 0 0 -6.041-2.735 31.548 31.548 0 0 0 -7.365-.895c-6.3 0-11.912 2.041-15.383 5.6a28.711 28.711 0 0 0 -7.291 12.079 21.669 21.669 0 0 0 -.243 5.6 1 1 0 0 1 -.068.461l-4.646 11.6-1.077 2.659h5.062a1 1 0 0 1 1 1v7.546.032a5.158 5.158 0 0 0 .5 2.118 3.866 3.866 0 0 0 3.546 2.11c5.047.287 7.313.3 7.335.3a1 1 0 0 1 1 1v6.9h22.479v-14.686a1 1 0 0 1 .385-.788 41.518 41.518 0 0 0 5.559-5.514 29.866 29.866 0 0 0 3.821-5.718 15.792 15.792 0 0 0 1.8-6.566 30.621 30.621 0 0 0 -1.163-9.992 11.3 11.3 0 0 0 -1.347-3.005z" fill="#616a6f" transform="translate(-1208.179 -321.639)"/><path d="m1230.359 337.984-.719-.7a16.552 16.552 0 0 1 3.45-2.8c1.2-.527 3.251-1.221 3.338-1.251l.32.947c-.021.007-2.1.71-3.256 1.219a15.325 15.325 0 0 0 -3.133 2.585z" fill="#cdd1d2" transform="translate(-1199.601 -318.754)"/><circle cx="30.399" cy="18.882" fill="#616a6f" r="1.878"/><path d="m1.878 0a1.878 1.878 0 1 1 -1.878 1.878 1.878 1.878 0 0 1 1.878-1.878z" fill="#616a6f" transform="translate(35.095 13.06)"/><g transform="translate(46.363 13.248)"><path d="m1250.016 343.139a36.125 36.125 0 0 0 -3.983-5.188c-2.379-2.576-6.612-3.656-6.655-3.666l.242-.97c.185.046 4.568 1.166 7.147 3.958a36.416 36.416 0 0 1 4.1 5.351z" fill="#cdd1d2" transform="translate(-1237.622 -331.922)"/><path d="m1.878 0a1.878 1.878 0 1 1 -1.878 1.878 1.878 1.878 0 0 1 1.878-1.878z" fill="#60696e" transform="translate(10.894 9.015)"/><path d="m1.878 0a1.878 1.878 0 1 1 -1.878 1.878 1.878 1.878 0 0 1 1.878-1.878z" fill="#616a6f"/></g><path d="m1242.172 343.233c-.057 0-.1 0-.136-.006h-13.636v-1h13.708.023a.882.882 0 0 0 .632-.231 2.492 2.492 0 0 0 .54-1.852c-.005-2.8 0-6.215 0-6.25h1c0 .034-.005 3.449 0 6.246a3.319 3.319 0 0 1 -.9 2.621 1.883 1.883 0 0 1 -1.231.472z" fill="#cdd1d2" transform="translate(-1201.006 -318.587)"/><path d="m1.878 0a1.878 1.878 0 1 1 -1.878 1.878 1.878 1.878 0 0 1 1.878-1.878z" fill="#616a6f" transform="translate(25.516 22.263)"/><path d="m1.878 0a1.878 1.878 0 1 1 -1.878 1.878 1.878 1.878 0 0 1 1.878-1.878z" fill="#616a6f" transform="translate(40.917 13.435)"/><g transform="translate(23.637 27.897)"><path d="m1262.561 348.206h-11.385c-1.544 0-2.112-.571-2.276-.8-.257-.27-2.211-2.321-3.654-3.951-1.155-1.306-1.843-1.365-1.958-1.365l-.074.03-.034-.02h-15.78v-1h15.737c.329-.047 1.351-.012 2.859 1.693 1.526 1.725 3.634 3.93 3.655 3.952l.062.065.005.018a2.033 2.033 0 0 0 1.458.375h11.385z" fill="#cdd1d2" transform="translate(-1225.522 -339.726)"/><g fill="#616a6f"><circle cx="1.878" cy="1.878" r="1.878"/><path d="m1.878 0a1.878 1.878 0 1 1 -1.878 1.878 1.878 1.878 0 0 1 1.878-1.878z" transform="translate(35.161 6.102)"/></g></g><g transform="translate(46.176 18.882)"><path d="m1244.4 346.1c-1.669 0-3.064 0-3.492-.011a2.081 2.081 0 0 1 -2-1.637l-.011-.051v-7.6h1v7.482a1.073 1.073 0 0 0 1.03.8c1.244.023 11.112 0 11.211 0v1c-.262.003-4.509.017-7.738.017z" fill="#cdd1d2" transform="translate(-1237.522 -334.922)"/><g fill="#616a6f"><path d="m1.878 0a1.878 1.878 0 1 1 -1.878 1.878 1.878 1.878 0 0 1 1.878-1.878z" transform="translate(12.623 8.796)"/><path d="m1.878 0a1.878 1.878 0 1 1 -1.878 1.878 1.878 1.878 0 0 1 1.878-1.878z"/></g></g><path d="m3.276-5.018c.286-1 .572-2.093.819-3.146h.065c.273 1.04.533 2.145.832 3.146l.286 1.053h-2.288zm-3.328 5.018h1.952l.676-2.47h3.12l.674 2.47h2.015l-3.094-9.633h-2.262zm9.568 0h1.924v-9.633h-1.924z" fill="#616a6f" transform="translate(35 53)"/><path d="m.647 0h7.767a.647.647 0 0 1 .647.647v22.006a.647.647 0 0 1 -.647.647h-7.767a.647.647 0 0 1 -.647-.647v-22.006a.647.647 0 0 1 .647-.647z" fill="#cdd1d2" transform="matrix(.848 .53 -.53 .848 94.15375 16.4626)"/><path d="m2 2v19.3h5.061v-19.3zm-1.353-2h7.767a.647.647 0 0 1 .647.647v22.006a.647.647 0 0 1 -.647.647h-7.767a.647.647 0 0 1 -.647-.647v-22.006a.647.647 0 0 1 .647-.647z" fill="#616a6f" transform="matrix(.848 .53 -.53 .848 94.15375 16.4626)"/><path d="m0 0h9.061v19.416h-9.061z" fill="#e0eef6" transform="matrix(.848 .53 -.53 .848 82.90238 34.464792)"/><path d="m2 2v15.416h5.061v-15.416zm-2-2h9.061v19.416h-9.061z" fill="#616a6f" transform="matrix(.848 .53 -.53 .848 82.90238 34.464792)"/><path d="m1.294 0h3.884a1.294 1.294 0 0 1 1.294 1.294v5.178a1.294 1.294 0 0 1 -1.294 1.295h-3.884a1.294 1.294 0 0 1 -1.294-1.295v-5.178a1.294 1.294 0 0 1 1.294-1.294z" fill="#cdd1d2" transform="matrix(.848 .53 -.53 .848 98.338312 12.20882)"/><path d="m1.5 1.5v4.767h3.472v-4.767zm-.206-1.5h3.884a1.294 1.294 0 0 1 1.294 1.294v5.178a1.294 1.294 0 0 1 -1.294 1.295h-3.884a1.294 1.294 0 0 1 -1.294-1.295v-5.178a1.294 1.294 0 0 1 1.294-1.294z" fill="#616a6f" transform="matrix(.848 .53 -.53 .848 98.338312 12.20882)"/><path d="m3.676.451a.647.647 0 0 1 1.233 0l3.646 11.457a.647.647 0 0 1 -.617.843h-7.29a.647.647 0 0 1 -.617-.843z" fill="#cdd1d2" transform="matrix(-.848 -.53 .53 -.848 74.434252 64.66292)"/><g fill="#616a6f"><path d="m4.293 5.109-1.793 5.642h3.588l-1.8-5.643m.005-5.108a.635.635 0 0 1 .617.451l3.645 11.457a.647.647 0 0 1 -.617.843h-7.29a.647.647 0 0 1 -.617-.843l3.645-11.457a.635.635 0 0 1 .617-.451z" transform="matrix(-.848 -.53 .53 -.848 74.434252 64.66292)"/><path d="m0 13.374a.5.5 0 0 1 -.5-.5v-12.874a.5.5 0 0 1 .5-.5.5.5 0 0 1 .5.5v12.874a.5.5 0 0 1 -.5.5z" transform="matrix(.848 .53 -.53 .848 95.922148 22.182254)"/><path d="m1274.193 467.908a3.331 3.331 0 0 1 -2.792-1.588 4.509 4.509 0 0 1 -.4-4.555 17.527 17.527 0 0 1 2.5-3.831 15.36 15.36 0 0 0 2.182-3.3 2.222 2.222 0 0 0 -.259-2.453 1.167 1.167 0 0 0 -.992-.467h-.015c-.955 0-3.253.7-7.979 5.325a74.825 74.825 0 0 0 -5.088 5.552 1 1 0 1 1 -1.553-1.26 75.505 75.505 0 0 1 5.243-5.722 37.254 37.254 0 0 1 4.676-3.976 8.762 8.762 0 0 1 4.7-1.92h.03a3.165 3.165 0 0 1 2.549 1.231 4.206 4.206 0 0 1 .543 4.435 16.912 16.912 0 0 1 -2.461 3.784c-2.049 2.627-3.209 4.342-2.041 6.006.477.679.9.75 1.213.736 1.077-.048 2.711-1.359 4.484-3.6a35.3 35.3 0 0 0 2.582-3.772 1 1 0 0 1 1.733 1 36.686 36.686 0 0 1 -2.733 4c-2.264 2.862-4.219 4.292-5.976 4.371q-.071.004-.146.004z" transform="translate(-1181.089 -396.19)"/></g></svg>