<svg height="80" viewBox="0 0 120 80" width="120" xmlns="http://www.w3.org/2000/svg"><path d="m0 0h120v80h-120z" fill="none"/><g fill="#616a6f"><path d="m1 0h4.042a1 1 0 0 1 1 1v15.111h-6.042v-15.111a1 1 0 0 1 1-1z" transform="translate(15 54.334)"/><path d="m1 0h4.042a1 1 0 0 1 1 1v27.195h-6.042v-27.195a1 1 0 0 1 1-1z" transform="translate(24.063 42.25)"/><path d="m1 0h4.042a1 1 0 0 1 1 1v20.146h-6.042v-20.146a1 1 0 0 1 1-1z" transform="translate(33.125 49.299)"/><path d="m1.208 0h3.625c.667 0 1.209.382 1.209.853v32.417h-6.042v-32.417c0-.471.541-.853 1.208-.853z" transform="translate(42.188 37.175)"/><path d="m1.208 0h3.625c.667 0 1.209.29 1.209.647v24.6h-6.042v-24.6c0-.357.541-.647 1.208-.647z" transform="translate(51.251 45.202)"/></g><path d="m1451.8 1899.214-1.606-1.191 9.687-13.061 9.055 7.263 9.294-12.225 9.644 8.732-1.342 1.483-8.028-7.269-9.215 12.127-9.037-7.248z" fill="#cdd1d2" transform="translate(-1432.979 -1862.913)"/><path d="m2.517 0a2.517 2.517 0 1 1 -2.517 2.517 2.517 2.517 0 0 1 2.517-2.517z" fill="#616a6f" transform="translate(15.503 33.188)"/><path d="m2.517 0a2.517 2.517 0 1 1 -2.517 2.517 2.517 2.517 0 0 1 2.517-2.517z" fill="#616a6f" transform="translate(24.566 21.105)"/><path d="m2.517 0a2.517 2.517 0 1 1 -2.517 2.517 2.517 2.517 0 0 1 2.517-2.517z" fill="#616a6f" transform="translate(33.628 28.154)"/><path d="m2.517 0a2.517 2.517 0 1 1 -2.517 2.517 2.517 2.517 0 0 1 2.517-2.517z" fill="#616a6f" transform="translate(42.691 16.07)"/><path d="m2.517 0a2.517 2.517 0 1 1 -2.517 2.517 2.517 2.517 0 0 1 2.517-2.517z" fill="#616a6f" transform="translate(51.754 24.025)"/><path d="m18.125 36.251a18.13 18.13 0 0 1 -7.055-34.827 18.012 18.012 0 0 1 7.055-1.424v18.125l17.035-6.2a18.12 18.12 0 0 1 -17.035 24.326z" fill="#e0eef6" transform="translate(67.362 14.056)"/><path d="m18.125 37.251a19.12 19.12 0 0 1 -13.525-32.651 19.068 19.068 0 0 1 13.525-5.6 1 1 0 0 1 1 1v16.7l15.695-5.717a1 1 0 0 1 1.282.6 19.12 19.12 0 0 1 -17.976 25.67zm-1-36.222a17.11 17.11 0 0 0 -16.125 17.096 17.13 17.13 0 0 0 32.905 6.665 17.207 17.207 0 0 0 .631-11.576l-16.068 5.85a1 1 0 0 1 -1.342-.94z" fill="#616a6f" transform="translate(67.362 14.056)"/><path d="m328.459 12.54a19.093 19.093 0 0 0 -17.912-12.54v19.061z" fill="#616a6f" transform="translate(-221.309 7.554)"/><g fill="#616a6f" transform="translate(67.624 57.355)"><path d="m0 0h24.174a1 1 0 0 1 1 1v3.035a1 1 0 0 1 -1 1h-24.174z"/><path d="m0 0h32.23a1 1 0 0 1 1 1v3.035a1 1 0 0 1 -1 1h-32.23z" transform="translate(0 8.056)"/></g></svg>