<svg height="80" viewBox="0 0 120 80" width="120" xmlns="http://www.w3.org/2000/svg"><path d="m0 0h120v80h-120z" fill="none"/><g fill="#626b70"><path d="m1357.9 159.9h-2v-14.565h2z" transform="translate(-1295.858 -115.335)"/><path d="m1401.358 157.408h-70.041a1 1 0 0 1 -1-1v-6.778h2v5.779h68.041v-5.779h2v6.779a1 1 0 0 1 -1 .999z" transform="translate(-1306.15 -119.274)"/><path d="m5 0 5 5h-10z" transform="matrix(-1 0 0 -1 66 48.27)"/></g><g transform="translate(14.908 2.263)"><path d="m1 0h20.436a1 1 0 0 1 1 1v26.045a1 1 0 0 1 -1 1h-20.436a1 1 0 0 1 -1-1v-26.045a1 1 0 0 1 1-1z" fill="#fff"/><path d="m2 2v24.045h18.436v-24.045zm-1-2h20.436a1 1 0 0 1 1 1v26.045a1 1 0 0 1 -1 1h-20.436a1 1 0 0 1 -1-1v-26.045a1 1 0 0 1 1-1z" fill="#626b70"/><path d="m.5 0h13.022a.5.5 0 0 1 .5.5v11.62a.5.5 0 0 1 -.5.5h-13.022a.5.5 0 0 1 -.5-.5v-11.62a.5.5 0 0 1 .5-.5z" fill="#fff" transform="translate(4.207 9.816)"/><g fill="#626b70"><path d="m1 1v10.62h12.022v-10.62zm-.5-1h13.022a.5.5 0 0 1 .5.5v11.62a.5.5 0 0 1 -.5.5h-13.022a.5.5 0 0 1 -.5-.5v-11.62a.5.5 0 0 1 .5-.5z" transform="translate(4.207 9.816)"/><path d="m1365.645 135.144h-12.863v-1h12.863z" transform="translate(-1347.654 -120.605)"/><path d="m1366.374 137.532h-12.863v-1h12.863z" transform="translate(-1348.383 -119.065)"/><path d="m1355.8 144.562h-1v-12.088h1z" transform="translate(-1346.095 -122.409)"/><path d="m1343.572 130.079h-5.825a.5.5 0 0 1 0-1h5.825a.5.5 0 0 1 0 1z" transform="translate(-1329.441 -123.692)"/></g></g><g transform="translate(49.964 2.263)"><path d="m1 0h20.436a1 1 0 0 1 1 1v26.045a1 1 0 0 1 -1 1h-20.436a1 1 0 0 1 -1-1v-26.045a1 1 0 0 1 1-1z" fill="#fff"/><g fill="#626b70"><path d="m2 2v24.045h18.436v-24.045zm-1-2h20.436a1 1 0 0 1 1 1v26.045a1 1 0 0 1 -1 1h-20.436a1 1 0 0 1 -1-1v-26.045a1 1 0 0 1 1-1z"/><path d="m1360.133 130.712h-7.333a.5.5 0 0 1 0-1h7.337a.5.5 0 0 1 0 1z" transform="translate(-1347.126 -124.582)"/><path d="m1363.965 130.712h-11.165a.5.5 0 0 1 0-1h11.169a.5.5 0 0 1 0 1z" transform="translate(-1347.303 -121.077)"/><path d="m1363.848 130.712h-11.048a.5.5 0 0 1 0-1h11.052a.5.5 0 0 1 0 1z" transform="translate(-1347.186 -117.571)"/><path d="m1363.848 130.712h-11.048a.5.5 0 0 1 0-1h11.052a.5.5 0 0 1 0 1z" transform="translate(-1347.125 -114.065)"/><path d="m1363.848 130.712h-11.048a.5.5 0 0 1 0-1h11.052a.5.5 0 0 1 0 1z" transform="translate(-1347.104 -110.56)"/></g></g><g transform="translate(83.618 2.263)"><path d="m1 0h20.436a1 1 0 0 1 1 1v26.045a1 1 0 0 1 -1 1h-20.436a1 1 0 0 1 -1-1v-26.045a1 1 0 0 1 1-1z" fill="#fff"/><g fill="#626b70"><path d="m2 2v24.045h18.436v-24.045zm-1-2h20.436a1 1 0 0 1 1 1v26.045a1 1 0 0 1 -1 1h-20.436a1 1 0 0 1 -1-1v-26.045a1 1 0 0 1 1-1z"/><path d="m1343.724 130.079h-5.978a.5.5 0 0 1 0-1h5.978a.5.5 0 0 1 0 1z" transform="translate(-1332.681 -124.32)"/><path d="m1349.6 130.079h-11.857a.5.5 0 0 1 0-1h11.857a.5.5 0 0 1 0 1z" transform="translate(-1332.681 -112.401)"/><path d="m1349.6 130.079h-11.857a.5.5 0 0 1 0-1h11.857a.5.5 0 0 1 0 1z" transform="translate(-1332.633 -108.896)"/></g><path d="m.5 0h13.022a.5.5 0 0 1 .5.5v4.258a.5.5 0 0 1 -.5.5h-13.022a.5.5 0 0 1 -.5-.5v-4.258a.5.5 0 0 1 .5-.5z" fill="#fff" transform="translate(4.031 8.764)"/><path d="m1 1v3.258h12.022v-3.258zm-.5-1h13.022a.5.5 0 0 1 .5.5v4.258a.5.5 0 0 1 -.5.5h-13.022a.5.5 0 0 1 -.5-.5v-4.258a.5.5 0 0 1 .5-.5z" fill="#626b70" transform="translate(4.031 8.764)"/></g><g transform="translate(41.551 49)"><g fill="#e0eef6" stroke="#626b70" stroke-width="2"><rect height="28.045" rx="1" stroke="none" width="39.263" y="1"/><path d="m1 2h37.263v26.045h-37.263z" fill="none"/></g><g fill="none" stroke="#616a6f" stroke-linecap="round"><path d="m1358.112 135.711h10.827" transform="translate(-1335.8 -117.384)"/><path d="m1358.112 135.711h10.827" transform="translate(-1335.8 -114.563)"/><path d="m1358.112 135.711h6.335" transform="translate(-1335.8 -111.741)"/></g><path d="m26.809 22.264s.595-.186.648-.292a14.1 14.1 0 0 0 -.132-1.87c-.035-.175-.442-1.358-.689-1.993a10.8 10.8 0 0 0 -1.13-2.188 18.025 18.025 0 0 0 -5.447-.824 20.209 20.209 0 0 0 -4.823.651 29.3 29.3 0 0 0 -4.446 2.052c-.44.194-4.041 1.325-4.234 1.537a8.672 8.672 0 0 0 -.847 1.554 10.77 10.77 0 0 0 .071 1.446 3.389 3.389 0 0 0 1.742.68l4.282-.08c2.261-.049 7.865-.19 10.625-.237z" fill="#fff" stroke="#707070" transform="translate(2.68 -9.393)"/><path d="m26.809 22.264s.595-.186.648-.292a14.1 14.1 0 0 0 -.132-1.87c-.035-.175-.442-1.358-.689-1.993a10.8 10.8 0 0 0 -1.13-2.188 18.025 18.025 0 0 0 -5.447-.824 20.209 20.209 0 0 0 -4.823.651 29.3 29.3 0 0 0 -4.446 2.052c-.44.194-4.041 1.325-4.234 1.537a8.672 8.672 0 0 0 -.847 1.554 10.77 10.77 0 0 0 .071 1.446 3.389 3.389 0 0 0 1.742.68l4.282-.08c2.261-.049 7.865-.19 10.625-.237z" fill="#fff" stroke="#636b6f" stroke-miterlimit="10" transform="translate(2.68 -9.393)"/><path d="m22.172 21.788a1.741 1.741 0 1 1 -1.742-1.741 1.742 1.742 0 0 1 1.742 1.741" fill="#ced1d2" stroke="#707070" transform="translate(4.988 -8.513)"/><path d="m22.172 21.788a1.741 1.741 0 1 1 -1.742-1.741 1.742 1.742 0 0 1 1.742 1.741z" fill="none" stroke="#636b6f" stroke-miterlimit="10" transform="translate(4.988 -8.513)"/><path d="m12.163 21.792a1.741 1.741 0 1 1 -1.742-1.741 1.742 1.742 0 0 1 1.742 1.741" fill="#ced1d2" stroke="#707070" transform="translate(3.208 -8.512)"/><path d="m12.163 21.792a1.741 1.741 0 1 1 -1.742-1.741 1.742 1.742 0 0 1 1.742 1.741z" fill="none" stroke="#636b6f" stroke-miterlimit="10" transform="translate(3.208 -8.512)"/><path d="m0 0h1v4h-1z" fill="#fff" transform="translate(6.81 20.821)"/><path d="m0 0h1v4h-1z" fill="#626b70" transform="translate(6.81 20.821)"/><path d="m0 0h1v8.344h-1z" fill="#fff" transform="translate(9.389 16.476)"/><path d="m0 0h1v8.344h-1z" fill="#626b70" transform="translate(9.389 16.476)"/><path d="m0 0h1v5.344h-1z" fill="#fff" transform="translate(12.041 19.476)"/><path d="m0 0h1v5.344h-1z" fill="#626b70" transform="translate(12.041 19.476)"/><path d="m0 0h1v7.344h-1z" fill="#fff" transform="translate(14.62 17.476)"/><path d="m0 0h1v7.344h-1z" fill="#626b70" transform="translate(14.62 17.476)"/><path d="m0 0h1v5.344h-1z" fill="#fff" transform="translate(17.271 19.476)"/><path d="m0 0h1v5.344h-1z" fill="#626b70" transform="translate(17.271 19.476)"/></g></svg>