<svg height="80" viewBox="0 0 120 80" width="120" xmlns="http://www.w3.org/2000/svg"><path d="m0 0h120v80h-120z" fill="none"/><path d="m4 0h75a4 4 0 0 1 4 4v44a4 4 0 0 1 -4 4h-75a4 4 0 0 1 -4-4v-44a4 4 0 0 1 4-4z" fill="#e0eef6" transform="translate(19.542 14.194)"/><path d="m4 2.5a1.5 1.5 0 0 0 -1.5 1.5v44a1.5 1.5 0 0 0 1.5 1.5h75a1.5 1.5 0 0 0 1.5-1.5v-44a1.5 1.5 0 0 0 -1.5-1.5zm0-2.5h75a4 4 0 0 1 4 4v44a4 4 0 0 1 -4 4h-75a4 4 0 0 1 -4-4v-44a4 4 0 0 1 4-4z" fill="#626b70" transform="translate(19.542 14.194)"/><path d="m28.046 13.274a9.958 9.958 0 1 1 -9.958 9.958 9.958 9.958 0 0 1 9.958-9.958" fill="#fff" transform="translate(17.657 9.789)"/><path d="m9.958-1a10.958 10.958 0 0 1 10.957 10.958 10.958 10.958 0 0 1 -10.957 10.957 10.958 10.958 0 0 1 -10.958-10.957 10.958 10.958 0 0 1 10.958-10.958zm0 19.915a8.958 8.958 0 1 0 -8.958-8.957 8.968 8.968 0 0 0 8.958 8.957z" fill="#626b70" transform="translate(35.744 23.063)"/><path d="m13.81 47.065a14.339 14.339 0 0 1 14.332-14.346c5.116 0 12.305 6.961 12.305 6.961s2.04 4.568 2.041 7.371v.014" fill="#fff" transform="translate(17.553 10.26)"/><g fill="#626b70"><path d="m13.81 48.065a1 1 0 0 1 -1-1 15.339 15.339 0 1 1 30.679-.015v.015a1 1 0 0 1 -2 0v-.014a13.339 13.339 0 0 0 -13.339-13.332h-.007a13.339 13.339 0 0 0 -13.333 13.346 1 1 0 0 1 -1 1z" transform="translate(17.553 10.26)"/><path d="m524.225 73.621h-21.665a1 1 0 0 1 0-2h21.665a1 1 0 0 1 0 2z" transform="translate(-435.271 -39.473)"/><path d="m524.225 73.621h-21.665a1 1 0 0 1 0-2h21.665a1 1 0 0 1 0 2z" transform="translate(-435.271 -33.792)"/><path d="m524.225 73.621h-21.665a1 1 0 0 1 0-2h21.665a1 1 0 0 1 0 2z" transform="translate(-435.271 -28.11)"/><path d="m515 73.621h-12.44a1 1 0 0 1 0-2h12.44a1 1 0 0 1 0 2z" transform="translate(-435.271 -22.428)"/><path d="m12 0a12 12 0 1 1 -12 12 12 12 0 0 1 12-12z" transform="translate(85 8)"/></g><path d="m12 2a10 10 0 1 0 10 10 10.011 10.011 0 0 0 -10-10m0-2a12 12 0 1 1 -12 12 12 12 0 0 1 12-12z" fill="#fff" transform="translate(85 8)"/><path d="m0 10a1 1 0 0 1 -1-1v-9a1 1 0 0 1 1-1 1 1 0 0 1 1 1v9a1 1 0 0 1 -1 1z" fill="#fff" transform="translate(97 15.5)"/><path d="m0 10a1 1 0 0 1 -1-1v-9a1 1 0 0 1 1-1 1 1 0 0 1 1 1v9a1 1 0 0 1 -1 1z" fill="#fff" transform="matrix(0 1 -1 0 101.5 20)"/></svg>