<svg height="80.102" viewBox="0 0 120 80.102" width="120" xmlns="http://www.w3.org/2000/svg"><path d="m0 .102h120v80h-120z" fill="none"/><path d="m613.834 95.6-23.278 11.941 15.125 11.059 17.892-26.127z" fill="#e0eef6" transform="translate(-565.427 -59.831)"/><path d="m600.3 95.6 23.278 11.941-15.129 11.059-17.892-26.128z" fill="#e0eef6" transform="translate(-528.427 -59.831)"/><path d="m600.3 115.471 23.278-11.941-15.129-11.058-17.892 26.128z" fill="#e0eef6" transform="matrix(.996 .087 -.087 .996 -507.722 -142.489)"/><path d="m9.739 3.129 23.278 11.941-15.125 11.057-17.892-26.127z" fill="#e0eef6" transform="matrix(-.97437006 .22495105 -.22495105 -.97437006 55.098 26.56)"/><path d="m0 0h33v42h-33z" fill="#fff" transform="translate(.119)"/><path d="m2 2v38h29v-38zm-2-2h33v42h-33z" fill="#616a6f" transform="translate(.119)"/><g transform="translate(5.522 10.148)"><path d="m.5 0h21.195a.5.5 0 0 1 .5.5v8.864a.5.5 0 0 1 -.5.5h-21.195a.5.5 0 0 1 -.5-.5v-8.864a.5.5 0 0 1 .5-.5z" fill="#fff"/><g fill="#616a6f"><path d="m1 1v7.864h20.195v-7.864zm-.5-1h21.195a.5.5 0 0 1 .5.5v8.864a.5.5 0 0 1 -.5.5h-21.195a.5.5 0 0 1 -.5-.5v-8.864a.5.5 0 0 1 .5-.5z"/><path d="m600.831 82.648h-21.243v-1h21.243z" transform="translate(-579.588 -77.216)"/><path d="m582.48 88.084h-1v-8.312h1z" transform="translate(-575.386 -79.163)"/></g></g><g transform="translate(5.522 21.988)"><path d="m.5 0h21.195a.5.5 0 0 1 .5.5v8.864a.5.5 0 0 1 -.5.5h-21.195a.5.5 0 0 1 -.5-.5v-8.864a.5.5 0 0 1 .5-.5z" fill="#fff"/><g fill="#616a6f"><path d="m1 1v7.864h20.195v-7.864zm-.5-1h21.195a.5.5 0 0 1 .5.5v8.864a.5.5 0 0 1 -.5.5h-21.195a.5.5 0 0 1 -.5-.5v-8.864a.5.5 0 0 1 .5-.5z"/><path d="m600.7 82.648h-21.112v-1h21.112z" transform="translate(-578.637 -77.216)"/><path d="m582.48 88.284h-1v-8.512h1z" transform="translate(-577.081 -79.073)"/><path d="m582.48 88.281h-1v-8.71h1z" transform="translate(-572.938 -78.795)"/><path d="m582.48 88.147h-1v-8.7h1z" transform="translate(-568.795 -78.879)"/><path d="m582.48 88.191h-1v-8.653h1z" transform="translate(-564.653 -78.817)"/></g></g><path d="m14.8.5h-14.8a.5.5 0 0 1 -.5-.5.5.5 0 0 1 .5-.5h14.8a.5.5 0 0 1 .5.5.5.5 0 0 1 -.5.5z" fill="#616a6f" transform="translate(9.221 6.576)"/><path d="m602.136 93.651h-23.136a.5.5 0 0 1 0-1h23.136a.5.5 0 0 1 0 1z" fill="#616a6f" transform="translate(-573.949 -57.976)"/><path d="m0 0h33v42h-33z" fill="#fff" transform="matrix(0 1 -1 0 50 47.102)"/><g fill="#616a6f"><path d="m2 2v38h29v-38zm-2-2h33v42h-33z" transform="matrix(0 1 -1 0 50 47.102)"/><path d="m175.126 687.533h-22.6a.5.5 0 1 1 0-1h22.6a.5.5 0 1 1 0 1z" transform="translate(-135.275 -633.18)"/><path d="m175.126 687.533h-22.6a.5.5 0 1 1 0-1h22.6a.5.5 0 1 1 0 1z" transform="translate(-135.275 -629.833)"/><path d="m163.162 687.533h-10.634a.5.5 0 1 1 0-1h10.634a.5.5 0 1 1 0 1z" transform="translate(-138.167 -616.496)"/><path d="m163.162 687.533h-10.634a.5.5 0 1 1 0-1h10.634a.5.5 0 1 1 0 1z" transform="translate(-119.754 -616.496)"/><path d="m163.162 687.533h-10.634a.5.5 0 1 1 0-1h10.634a.5.5 0 1 1 0 1z" transform="translate(-138.167 -613.148)"/><path d="m163.162 687.533h-10.634a.5.5 0 1 1 0-1h10.634a.5.5 0 1 1 0 1z" transform="translate(-119.754 -613.148)"/></g><path d="m.5 0h29.131a.5.5 0 0 1 .5.5v5.7a.5.5 0 0 1 -.5.5h-29.131a.5.5 0 0 1 -.5-.5v-5.7a.5.5 0 0 1 .5-.5z" fill="#fff" transform="translate(13.859 60.493)"/><path d="m1 1v4.7h28.131v-4.7zm-.5-1h29.131a.5.5 0 0 1 .5.5v5.7a.5.5 0 0 1 -.5.5h-29.131a.5.5 0 0 1 -.5-.5v-5.7a.5.5 0 0 1 .5-.5z" fill="#616a6f" transform="translate(13.859 60.493)"/><path d="m0 0h33v42h-33z" fill="#fff" transform="matrix(0 1 -1 0 112 47.102)"/><path d="m2 2v38h29v-38zm-2-2h33v42h-33z" fill="#616a6f" transform="matrix(0 1 -1 0 112 47.102)"/><path d="m638.782 105.953h-15.637a.5.5 0 0 1 0-1h15.636a.5.5 0 0 1 0 1z" fill="#616a6f" transform="translate(-540.326 -52.102)"/><g transform="translate(74.933 57.297)"><path d="m.5 0h31.244a.5.5 0 0 1 .5.5v16.266a.5.5 0 0 1 -.5.5h-31.244a.5.5 0 0 1 -.5-.5v-16.266a.5.5 0 0 1 .5-.5z" fill="#fff"/><g fill="#616a6f"><path d="m1 1v15.266h30.244v-15.266zm-.5-1h31.244a.5.5 0 0 1 .5.5v16.266a.5.5 0 0 1 -.5.5h-31.244a.5.5 0 0 1 -.5-.5v-16.266a.5.5 0 0 1 .5-.5z"/><path d="m650.533 110.89h-31.21v-1h31.21z" transform="translate(-618.697 -105.786)"/><path d="m650.533 110.89h-31.21v-1h31.21z" transform="translate(-618.289 -101.839)"/><path d="m650.533 110.89h-31.21v-1h31.21z" transform="translate(-618.289 -97.893)"/></g></g><path d="m624.545 123.872h-1v-16h1z" fill="#616a6f" transform="translate(-540.493 -50.032)"/><path d="m0 0h33v42h-33z" fill="#fff" transform="translate(87 .102)"/><path d="m2 2v38h29v-38zm-2-2h33v42h-33z" fill="#626b70" transform="translate(87 .102)"/><path d="m643.215 77.038h-11.615a.5.5 0 0 1 0-1h11.615a.5.5 0 0 1 0 1z" fill="#626b70" transform="translate(-533.785 -71.018)"/><path d="m643.215 77.038h-11.615a.5.5 0 0 1 0-1h11.615a.5.5 0 0 1 0 1z" fill="#626b70" transform="translate(-533.77 -67.691)"/><path d="m225.159 154.347-.111-.994c.013 0 1.286-.144 1.89-.222a.58.58 0 0 0 .363-.141c-.008-.184-.066-.753-.106-1.141-.017-.165-.034-.328-.048-.476a26.008 26.008 0 0 0 -1.785-4.06 1.675 1.675 0 0 0 -.4-.112c-.15-.034-.337-.076-.572-.138-.552-.147-2.647-.361-3.407-.43l.092-1c.288.027 2.839.265 3.573.46.216.057.392.1.534.129a1.765 1.765 0 0 1 .856.349 2.643 2.643 0 0 1 .5.825c.192.38.423.864.648 1.363a13.247 13.247 0 0 1 .949 2.513c.015.146.031.308.048.472a12.392 12.392 0 0 1 .11 1.344c-.022.326-.308.912-1.235 1.031-.606.081-1.887.227-1.899.228z" fill="#626b70" transform="translate(-112.753 -132.331)"/><path d="m212.023 154.942-.018-1 8.9-.161.018 1z" fill="#626b70" transform="translate(-112.634 -132.438)"/><path d="m208.223 154.924h-1.723-.051c-.019 0-.46-.047-.931-.148-.81-.173-1.218-.4-1.366-.751a6.877 6.877 0 0 1 -.233-1.825.5.5 0 0 1 .057-.241l.535-1.019a2.6 2.6 0 0 1 1.6-1.252l.748-.248c.972-.32 2.6-.857 2.838-1 .035-.021 3.652-2.138 5.709-2.463a22.287 22.287 0 0 1 5.87-.3l-.073 1a21.179 21.179 0 0 0 -5.641.29 21.866 21.866 0 0 0 -5.347 2.33 26.779 26.779 0 0 1 -3.043 1.094l-.741.245a1.7 1.7 0 0 0 -1.009.713.224.224 0 0 1 -.02.042l-.483.919a6.751 6.751 0 0 0 .135 1.277 4.947 4.947 0 0 0 1.468.339h1.693z" fill="#626b70" transform="translate(-112.535 -132.33)"/><path d="m2.566 0a2.566 2.566 0 1 1 -2.566 2.566 2.566 2.566 0 0 1 2.566-2.566z" fill="#cdd1d2" transform="translate(94.925 19.358)"/><path d="m2.566 1a1.566 1.566 0 1 0 1.566 1.566 1.568 1.568 0 0 0 -1.566-1.566m0-1a2.566 2.566 0 1 1 -2.566 2.566 2.566 2.566 0 0 1 2.566-2.566z" fill="#626b70" transform="translate(94.925 19.358)"/><path d="m2.566 0a2.566 2.566 0 1 1 -2.566 2.566 2.566 2.566 0 0 1 2.566-2.566z" fill="#cdd1d2" transform="translate(107.754 19.358)"/><path d="m2.566 1a1.566 1.566 0 1 0 1.566 1.566 1.568 1.568 0 0 0 -1.566-1.566m0-1a2.566 2.566 0 1 1 -2.566 2.566 2.566 2.566 0 0 1 2.566-2.566z" fill="#626b70" transform="translate(107.754 19.358)"/><path d="m.5 0h19a.5.5 0 0 1 .5.5v9a.5.5 0 0 1 -.5.5h-19a.5.5 0 0 1 -.5-.5v-9a.5.5 0 0 1 .5-.5z" fill="#fff" transform="translate(94 27.102)"/><path d="m1 1v8h18v-8zm-.5-1h19a.5.5 0 0 1 .5.5v9a.5.5 0 0 1 -.5.5h-19a.5.5 0 0 1 -.5-.5v-9a.5.5 0 0 1 .5-.5z" fill="#626b70" transform="translate(94 27.102)"/><path d="m217.057 673.5h-19.623v-1h19.622z" fill="#626b70" transform="translate(-103.057 -640.898)"/><path d="m213.737 267.5-1.339 4.707h11.132l-1.254-4.707z" fill="#cdd1d2" transform="translate(-157.493 -232.261)"/><path d="m18.235 1h-18.235a1 1 0 0 1 -1-1 1 1 0 0 1 1-1h18.235a1 1 0 0 1 1 1 1 1 0 0 1 -1 1z" fill="#616a6f" transform="translate(51.382 39.88)"/><path d="m.97 5.105-1.94-.485 1.216-4.863 1.94.485z" fill="#616a6f" transform="translate(55.017 35.239)"/><path d="m.246 5.105-1.216-4.862 1.94-.486 1.216 4.863z" fill="#616a6f" transform="translate(64.768 35.239)"/><path d="m2.5 2a.5.5 0 0 0 -.5.491v21.763a.5.5 0 0 0 .5.491h34a.5.5 0 0 0 .5-.491v-21.763a.5.5 0 0 0 -.5-.491zm0-2h34a2.494 2.494 0 0 1 2.5 2.491v21.763a2.494 2.494 0 0 1 -2.5 2.491h-34a2.494 2.494 0 0 1 -2.5-2.491v-21.763a2.494 2.494 0 0 1 2.5-2.491z" fill="#626b70" transform="translate(41 9.102)"/><path d="m0 0h36.569v22.855h-36.569z" fill="#616a6f" transform="translate(42.216 10.318)"/><path d="m0 0h34.137v18.235h-34.137z" fill="#e0eef6" transform="translate(43.431 11.533)"/><path d="m0 0h35.6v1.645a.3.3 0 0 1 -.3.3h-35a.3.3 0 0 1 -.3-.3z" fill="#cdd1d2" transform="translate(42.641 32.2)"/></svg>