<svg height="80" viewBox="0 0 120 80" width="120" xmlns="http://www.w3.org/2000/svg"><path d="m0 0h120v80h-120z" fill="none"/><path d="m9 0 9 8h-18z" fill="#cdd1d2" transform="matrix(0 1 -1 0 70.563 30)"/><path d="m0 0h12v10h-12z" fill="#cdd1d2" transform="translate(53.186 34)"/><g fill="#fff" transform="translate(73 13)"><path d="m44.5 56h-43c-.27569997 0-.5-.22430038-.5-.5v-54c0-.27569997.22430003-.5.5-.5h43c.27569962 0 .5.22430003.5.5v54c0 .27569962-.22430038.5-.5.5z"/><path d="m2 2v53h42v-53zm-.5-2h43c.82843018 0 1.5.67156982 1.5 1.5v54c0 .82843018-.67156982 1.5-1.5 1.5h-43c-.82843018 0-1.5-.67156982-1.5-1.5v-54c0-.82843018.67156982-1.5 1.5-1.5z" fill="#616a6f"/></g><g fill="#616a6f"><path d="m0 0h44v5h-44z" transform="translate(74 14)"/><path d="m229.649 199.905a.5.5 0 0 1 -.5-.5v-2.466a.5.5 0 0 1 1 0v2.466a.5.5 0 0 1 -.5.5z" transform="translate(-146.648 -154.666)"/><path d="m229.649 199.905a.5.5 0 0 1 -.5-.5v-2.466a.5.5 0 0 1 1 0v2.466a.5.5 0 0 1 -.5.5z" transform="translate(-137.84 -154.666)"/><path d="m229.649 199.905a.5.5 0 0 1 -.5-.5v-2.466a.5.5 0 0 1 1 0v2.466a.5.5 0 0 1 -.5.5z" transform="translate(-129.031 -154.666)"/><path d="m229.649 199.905a.5.5 0 0 1 -.5-.5v-2.466a.5.5 0 0 1 1 0v2.466a.5.5 0 0 1 -.5.5z" transform="translate(-120.309 -154.666)"/><path d="m25.017.5h-25.017a.5.5 0 0 1 -.5-.5.5.5 0 0 1 .5-.5h25.017a.5.5 0 0 1 .5.5.5.5 0 0 1 -.5.5z" transform="translate(83.443 43.572)"/></g><path d="m37.171 25.784s.887-.277.966-.436a21.021 21.021 0 0 0 -.2-2.789c-.053-.262-.659-2.025-1.027-2.971a16.1 16.1 0 0 0 -1.684-3.263c-.328-.385-5.04-1.229-8.122-1.229a30.133 30.133 0 0 0 -7.192.971 43.692 43.692 0 0 0 -6.63 3.054c-.657.29-6.025 1.976-6.314 2.292a12.931 12.931 0 0 0 -1.263 2.316 16.059 16.059 0 0 0 .105 2.157 5.053 5.053 0 0 0 2.6 1.013l6.39-.119c3.372-.074 11.728-.283 15.843-.353z" fill="#fff" transform="translate(74.29 8.84)"/><path d="m8.39 27.4h-.031a5.457 5.457 0 0 1 -2.929-1.19c-.109-.131-.221-.266-.221-2.477 0-.107 0-.253.582-1.336a9.212 9.212 0 0 1 .809-1.322c.21-.23.819-.482 4.449-1.7.934-.315 1.816-.612 2.031-.707.14-.062.459-.233.863-.449a33.8 33.8 0 0 1 5.83-2.628 30.8 30.8 0 0 1 7.329-.991 34.576 34.576 0 0 1 5.174.477c2.943.476 3.223.8 3.329.928a16.452 16.452 0 0 1 1.77 3.406c.343.881.986 2.73 1.052 3.054.036.18.109.914.156 1.492.113 1.389.065 1.485 0 1.619s-.174.348-1.264.689l-.049.015-6.623.65c-2.817.048-7.608.161-11.458.252-1.781.042-3.32.078-4.383.1zm-2.121-1.761a5.16 5.16 0 0 0 2.166.76l6.353-.119c1.06-.023 2.6-.059 4.379-.1 3.842-.09 8.621-.2 11.444-.251l6.459-.636a6.19 6.19 0 0 0 .584-.219c-.012-.58-.161-2.2-.2-2.415s-.624-1.915-1-2.888a16.574 16.574 0 0 0 -1.568-3.083 30.782 30.782 0 0 0 -7.78-1.088 29.65 29.65 0 0 0 -7.054.952 33.039 33.039 0 0 0 -5.633 2.548c-.44.236-.757.406-.933.483-.243.107-.962.351-2.115.739-1.287.433-3.657 1.232-4.055 1.462a15.579 15.579 0 0 0 -1.107 2.016c.002.543.022 1.51.06 1.839z" fill="#707070" transform="translate(74.29 8.84)"/><path d="m8.39 27.4h-.031a5.457 5.457 0 0 1 -2.929-1.19c-.109-.131-.221-.266-.221-2.477 0-.107 0-.253.582-1.336a9.212 9.212 0 0 1 .809-1.322c.21-.23.819-.482 4.449-1.7.934-.315 1.816-.612 2.031-.707.14-.062.459-.233.863-.449a33.8 33.8 0 0 1 5.83-2.628 30.8 30.8 0 0 1 7.329-.991 34.576 34.576 0 0 1 5.174.477c2.943.476 3.223.8 3.329.928a16.452 16.452 0 0 1 1.77 3.406c.343.881.986 2.73 1.052 3.054.036.18.109.914.156 1.492.113 1.389.065 1.485 0 1.619s-.174.348-1.264.689l-.049.015-6.623.65c-2.817.048-7.608.161-11.458.252-1.781.042-3.32.078-4.383.1zm-2.121-1.761a5.16 5.16 0 0 0 2.166.76l6.353-.119c1.06-.023 2.6-.059 4.379-.1 3.842-.09 8.621-.2 11.444-.251l6.459-.636a6.19 6.19 0 0 0 .584-.219c-.012-.58-.161-2.2-.2-2.415s-.624-1.915-1-2.888a16.574 16.574 0 0 0 -1.568-3.083 30.782 30.782 0 0 0 -7.78-1.088 29.65 29.65 0 0 0 -7.054.952 33.039 33.039 0 0 0 -5.633 2.548c-.44.236-.757.406-.933.483-.243.107-.962.351-2.115.739-1.287.433-3.657 1.232-4.055 1.462a15.579 15.579 0 0 0 -1.107 2.016c.002.543.022 1.51.06 1.839z" fill="#636b6f" transform="translate(74.29 8.84)"/><path d="m23.881 22.643a2.6 2.6 0 1 1 -2.6-2.6 2.6 2.6 0 0 1 2.6 2.6" fill="#ced1d2" transform="translate(84.106 12.584)"/><path d="m21.286 25.74a3.1 3.1 0 1 1 3.1-3.1 3.1 3.1 0 0 1 -3.1 3.1zm0-5.193a2.1 2.1 0 1 0 2.1 2.1 2.1 2.1 0 0 0 -2.102-2.1z" fill="#707070" transform="translate(84.106 12.584)"/><path d="m21.283 19.547a3.1 3.1 0 1 1 -3.094 3.1 3.1 3.1 0 0 1 3.095-3.1zm0 5.193a2.1 2.1 0 1 0 -2.1-2.1 2.1 2.1 0 0 0 2.103 2.1z" fill="#636b6f" transform="translate(84.106 12.584)"/><path d="m13.872 22.647a2.6 2.6 0 1 1 -2.6-2.6 2.6 2.6 0 0 1 2.6 2.6" fill="#ced1d2" transform="translate(76.537 12.587)"/><path d="m11.277 25.744a3.1 3.1 0 1 1 3.1-3.1 3.1 3.1 0 0 1 -3.1 3.1zm0-5.193a2.1 2.1 0 1 0 2.1 2.1 2.1 2.1 0 0 0 -2.102-2.1z" fill="#707070" transform="translate(76.537 12.587)"/><path d="m11.274 19.551a3.1 3.1 0 1 1 -3.094 3.1 3.1 3.1 0 0 1 3.095-3.1zm0 5.193a2.1 2.1 0 1 0 -2.1-2.1 2.1 2.1 0 0 0 2.103 2.1z" fill="#636b6f" transform="translate(76.537 12.587)"/><g fill="#616a6f" transform="translate(86 50.957)"><path d="m20.571.5h-20.571a.5.5 0 0 1 -.5-.5.5.5 0 0 1 .5-.5h20.571a.5.5 0 0 1 .5.5.5.5 0 0 1 -.5.5z"/><path d="m20.571.5h-20.571a.5.5 0 0 1 -.5-.5.5.5 0 0 1 .5-.5h20.571a.5.5 0 0 1 .5.5.5.5 0 0 1 -.5.5z" transform="translate(0 3.767)"/><path d="m20.571.5h-20.571a.5.5 0 0 1 -.5-.5.5.5 0 0 1 .5-.5h20.571a.5.5 0 0 1 .5.5.5.5 0 0 1 -.5.5z" transform="translate(0 7.535)"/><path d="m20.571.5h-20.571a.5.5 0 0 1 -.5-.5.5.5 0 0 1 .5-.5h20.571a.5.5 0 0 1 .5.5.5.5 0 0 1 -.5.5z" transform="translate(0 11.302)"/></g><path d="m214.2 267.5-1.806 6.35h15.016l-1.692-6.35z" fill="#cdd1d2" transform="translate(-191.962 -211.65)"/><path d="m24.6 1h-24.6a1 1 0 0 1 -1-1 1 1 0 0 1 1-1h24.6a1 1 0 0 1 1 1 1 1 0 0 1 -1 1z" fill="#616a6f" transform="translate(15.683 62.109)"/><path d="m.97 6.8-1.94-.483 1.64-6.56 1.94.486z" fill="#616a6f" transform="translate(20.586 55.849)"/><path d="m.67 6.8-1.64-6.557 1.94-.486 1.64 6.56z" fill="#616a6f" transform="translate(33.74 55.849)"/><path d="m0 0h49.332v5.891a.3.3 0 0 1 -.3.3h-48.732a.3.3 0 0 1 -.3-.3z" fill="#cdd1d2" transform="translate(3.317 49.658)"/><path d="m3.369 2a1.366 1.366 0 0 0 -1.369 1.36v29.359a1.366 1.366 0 0 0 1.369 1.36h45.874a1.366 1.366 0 0 0 1.369-1.36v-29.359a1.366 1.366 0 0 0 -1.369-1.36zm0-2h45.874a3.364 3.364 0 0 1 3.369 3.36v29.359a3.364 3.364 0 0 1 -3.369 3.36h-45.874a3.364 3.364 0 0 1 -3.369-3.36v-29.359a3.364 3.364 0 0 1 3.369-3.36z" fill="#626b70" transform="translate(1.677 20.59)"/><path d="m0 0h49.332v29.277h-49.332z" fill="#616a6f" transform="translate(3.317 22.23)"/><path d="m0 0h46.052v24.6h-46.052z" fill="#e0eef6" transform="translate(4.957 23.87)"/><g transform="translate(8.504 32.737)"><g fill="#fff" stroke="#616a6f"><path d="m0 0h39.164v9.591h-39.164z" stroke="none"/><path d="m-.5-.5h40.164v10.591h-40.164z" fill="none"/></g><path d="m23.158 5.4h-1.376l1.686-2.785-1.581-2.615h1.355l.933 1.692.925-1.692h1.355l-1.58 2.616 1.681 2.784h-1.371l-1.009-1.861zm9.761 0h-1.377l1.686-2.785-1.584-2.615h1.356l.932 1.692.928-1.692h1.357l-1.58 2.616 1.68 2.784h-1.374l-1.008-1.861zm-14.639 0h-1.38l1.684-2.785-1.584-2.615h1.357l.932 1.692.932-1.692h1.357l-1.583 2.616 1.683 2.784h-1.378l-1.01-1.862zm-7.143 0h-1.376l1.682-2.785-1.581-2.615h1.357l.932 1.692.927-1.692h1.357l-1.583 2.616 1.683 2.784h-1.374l-1.01-1.862zm-9.761 0h-1.376l1.686-2.784-1.586-2.616h1.358l.932 1.692.929-1.692h1.355l-1.583 2.616 1.683 2.784h-1.374l-1.01-1.861-1.014 1.861zm26.663 0h-1.376l1.683-2.785-1.58-2.615h1.357l.932 1.692.924-1.692h1.359l-1.583 2.616 1.683 2.784h-1.375l-1.009-1.861zm-21.784 0h-1.377l1.686-2.784-1.58-2.616h1.356l.932 1.692.928-1.692h1.354l-1.581 2.616 1.684 2.784h-1.375l-1.01-1.861zm10.423-1.459h-1.917v-1.1h1.917z" fill="#626b70" transform="translate(1.359 2.191)"/></g></svg>