<svg height="80" viewBox="0 0 120 80" width="120" xmlns="http://www.w3.org/2000/svg"><path d="m0 0h120v80h-120z" fill="none"/><path d="m3 0h41a3 3 0 0 1 3 3v54a3 3 0 0 1 -3 3h-41a3 3 0 0 1 -3-3v-54a3 3 0 0 1 3-3z" fill="#fff" transform="translate(11 10)"/><path d="m3 2.5a.5.5 0 0 0 -.5.5v54a.5.5 0 0 0 .5.5h41a.5.5 0 0 0 .5-.5v-54a.5.5 0 0 0 -.5-.5zm0-2.5h41a3 3 0 0 1 3 3v54a3 3 0 0 1 -3 3h-41a3 3 0 0 1 -3-3v-54a3 3 0 0 1 3-3z" fill="#626b70" transform="translate(11 10)"/><path d="m4.041 3.231c2.259 0 3.819-1.231 3.819-4.002v-1.123c0-2.77-1.562-4.087-3.819-4.087h-2.416a1.016 1.016 0 0 0 -1.025 1.025v7.162a1.016 1.016 0 0 0 1.025 1.025zm0-7.443c1.232 0 1.757.866 1.757 2.233v1.293c0 1.611-.586 2.135-1.757 2.135h-1.391v-5.661zm6.406-1.94a1 1 0 0 0 -1.074 1.025v7.492a.974.974 0 0 0 .951 1.035 1 1 0 0 0 .988-1.037v-2.17l-.037-2.526 1.27 2.526c.293.647.537.9 1.135.9s.854-.268 1.171-.915l1.318-2.648-.049 2.724v2.111a.976.976 0 0 0 .964 1.035 1 1 0 0 0 .988-1.037v-7.49a1.007 1.007 0 0 0 -1.086-1.025 1.161 1.161 0 0 0 -1.135.708l-2.122 4.234-2.136-4.234a1.177 1.177 0 0 0 -1.147-.708z" fill="#626b70" transform="translate(25.4 23.007)"/><path d="m0 0h33v15h-33z" fill="#cdd1d2" transform="translate(18 31)"/><g fill="#626b70"><path d="m2 2v11h29v-11zm-2-2h33v15h-33z" transform="translate(18 31)"/><path d="m171.088 1077.294h-25.42a1 1 0 1 1 0-2h25.42a1 1 0 0 1 0 2z" transform="translate(-124.167 -1024.809)"/><path d="m171.088 1077.294h-25.42a1 1 0 1 1 0-2h25.42a1 1 0 0 1 0 2z" transform="translate(-124.167 -1020.242)"/><path d="m171.088 1077.294h-25.42a1 1 0 1 1 0-2h25.42a1 1 0 0 1 0 2z" transform="translate(-124.167 -1015.676)"/></g><path d="m3 0h41a3 3 0 0 1 3 3v54a3 3 0 0 1 -3 3h-41a3 3 0 0 1 -3-3v-54a3 3 0 0 1 3-3z" fill="#fff" transform="translate(62 10)"/><path d="m3 2.5a.5.5 0 0 0 -.5.5v54a.5.5 0 0 0 .5.5h41a.5.5 0 0 0 .5-.5v-54a.5.5 0 0 0 -.5-.5zm0-2.5h41a3 3 0 0 1 3 3v54a3 3 0 0 1 -3 3h-41a3 3 0 0 1 -3-3v-54a3 3 0 0 1 3-3z" fill="#626b70" transform="translate(62 10)"/><path d="m0 0h8v9h-8z" fill="#626b70" transform="translate(69 16)"/><path d="m1.5 1.5v6h5v-6zm-1.5-1.5h8v9h-8z" fill="#626b70" transform="translate(69 16)"/><path d="m0 0h5v6h-5z" fill="#fff" transform="translate(79.48 16)"/><path d="m1 1v4h3v-4zm-1-1h5v6h-5z" fill="#626b70" transform="translate(79.48 16)"/><path d="m0 0h5v6h-5z" fill="#fff" transform="translate(85.48 16)"/><path d="m1 1v4h3v-4zm-1-1h5v6h-5z" fill="#626b70" transform="translate(85.48 16)"/><path d="m0 0h5v6h-5z" fill="#fff" transform="translate(91.48 16)"/><path d="m1 1v4h3v-4zm-1-1h5v6h-5z" fill="#626b70" transform="translate(91.48 16)"/><path d="m0 0h5v6h-5z" fill="#fff" transform="translate(97.48 16)"/><path d="m1 1v4h3v-4zm-1-1h5v6h-5z" fill="#626b70" transform="translate(97.48 16)"/><path d="m171.088 1077.294h-25.42a1 1 0 1 1 0-2h25.42a1 1 0 0 1 0 2z" fill="#626b70" transform="translate(-73.195 -1041.809)"/><path d="m171.088 1077.294h-25.42a1 1 0 1 1 0-2h25.42a1 1 0 0 1 0 2z" fill="#626b70" transform="translate(-73.195 -1037.242)"/><path d="m160.682 1077.294h-15.013a1 1 0 1 1 0-2h15.013a1 1 0 0 1 0 2z" fill="#626b70" transform="translate(-73.195 -1030.676)"/></svg>