<svg height="80" viewBox="0 0 120 80" width="120" xmlns="http://www.w3.org/2000/svg"><path d="m0 0h120v80h-120z" fill="none"/><g transform="translate(2.278 18.43)"><path d="m214.237 267.5-1.838 6.464h15.284l-1.722-6.464z" fill="#cdd1d2" transform="translate(-193.303 -231.609)"/><g fill="#616a6f"><path d="m25.04 1h-25.04a1 1 0 0 1 -1-1 1 1 0 0 1 1-1h25.04a1 1 0 0 1 1 1 1 1 0 0 1 -1 1z" transform="translate(14.257 42.263)"/><path d="m.97 6.92-1.94-.485 1.67-6.678 1.94.485z" transform="translate(19.247 35.891)"/><path d="m.7 6.92-1.67-6.677 1.94-.486 1.669 6.678z" transform="translate(32.637 35.891)"/></g><path d="m0 0h50.214v6a.3.3 0 0 1 -.3.3h-49.614a.3.3 0 0 1 -.3-.3z" fill="#cdd1d2" transform="translate(1.669 29.589)"/><path d="m3.429 2a1.426 1.426 0 0 0 -1.429 1.42v29.88a1.426 1.426 0 0 0 1.429 1.42h46.7a1.426 1.426 0 0 0 1.429-1.42v-29.88a1.426 1.426 0 0 0 -1.434-1.42zm0-2h46.7a3.425 3.425 0 0 1 3.429 3.42v29.88a3.425 3.425 0 0 1 -3.429 3.42h-46.7a3.425 3.425 0 0 1 -3.429-3.42v-29.88a3.425 3.425 0 0 1 3.429-3.42z" fill="#626b70"/><path d="m0 0h50.214v29.8h-50.214z" fill="#616a6f" transform="translate(1.669 1.669)"/><path d="m0 0h46.876v25.04h-46.876z" fill="#e0eef6" transform="translate(3.339 3.339)"/></g><g transform="translate(12.847 24.276)"><path d="m63.422 31.025h-30.542a.7.7 0 0 1 -.729-.67v-18.655a.7.7 0 0 1 .729-.67h30.542a.7.7 0 0 1 .729.67v18.655a.7.7 0 0 1 -.729.67" fill="#fff" transform="translate(-31.88 -11.025)"/><path d="m1.214-.5h29.572a1.786 1.786 0 0 1 1.714 1.846v17.308a1.786 1.786 0 0 1 -1.714 1.846h-29.572a1.786 1.786 0 0 1 -1.714-1.846v-17.308a1.786 1.786 0 0 1 1.714-1.846zm29.572 20.1a.911.911 0 0 0 .875-.942v-17.312a.911.911 0 0 0 -.875-.946h-29.572a.911.911 0 0 0 -.875.942v17.312a.911.911 0 0 0 .875.942z" fill="#636b6f"/><g transform="translate(-32.151 -11.025)"><path d="m64.151 14.955h-32v-3.055a.81.81 0 0 1 .729-.873h30.542a.81.81 0 0 1 .729.873z" fill="#ced1d2"/><path d="m64.651 15.455h-33v-3.555a1.278 1.278 0 0 1 1.149-1.374h30.7a1.278 1.278 0 0 1 1.151 1.374zm-32.16-1h31.32v-2.555a.347.347 0 0 0 -.313-.373h-30.698a.347.347 0 0 0 -.313.373z" fill="#636b6f"/><path d="m64.651 15.455h-33v-3.555a1.278 1.278 0 0 1 1.149-1.374h30.7a1.278 1.278 0 0 1 1.151 1.374zm-32.16-1h31.32v-2.555a.347.347 0 0 0 -.313-.373h-30.698a.347.347 0 0 0 -.313.373z" fill="#636b6f"/></g></g><path d="m224.518 153.134-.111-.994c.011 0 1.083-.122 1.592-.187a.542.542 0 0 0 .235-.074c-.011-.181-.056-.614-.087-.915-.015-.141-.029-.28-.041-.406a22.4 22.4 0 0 0 -1.481-3.369 2.078 2.078 0 0 0 -.3-.078c-.127-.029-.286-.064-.485-.117-.46-.122-2.219-.3-2.858-.36l.092-1c.244.022 2.4.224 3.024.39.18.048.322.08.447.108a1.546 1.546 0 0 1 .755.311c.065.056.238.206.992 1.871a11.15 11.15 0 0 1 .807 2.142c.012.125.027.263.041.4a10.284 10.284 0 0 1 .093 1.141 1.124 1.124 0 0 1 -1.109.942c-.515.072-1.562.19-1.606.195z" fill="#616a6f" transform="translate(-188.538 -113.998)"/><path d="m212.023 154.917-.018-1 7.5-.135.018 1z" fill="#616a6f" transform="translate(-187.02 -115.369)"/><path d="m207.626 153.615h-1.448-.05c-.016 0-.392-.04-.793-.126-.711-.152-1.072-.355-1.207-.679a5.684 5.684 0 0 1 -.2-1.567.5.5 0 0 1 .057-.241l.45-.858a2.276 2.276 0 0 1 1.394-1.094l.633-.209c.81-.267 2.165-.714 2.375-.835a19.416 19.416 0 0 1 4.839-2.085 18.849 18.849 0 0 1 4.964-.254l-.073 1a17.783 17.783 0 0 0 -4.736.244 18.337 18.337 0 0 0 -4.478 1.953 20.638 20.638 0 0 1 -2.579.929l-.626.207a1.384 1.384 0 0 0 -.8.557.2.2 0 0 1 -.02.041l-.4.756a6.07 6.07 0 0 0 .1 1 4.507 4.507 0 0 0 1.175.26h1.422z" fill="#616a6f" transform="translate(-185.742 -113.992)"/><circle cx="23.402" cy="38.98" fill="#cdd1d2" r="2.162"/><path d="m2.162 1a1.162 1.162 0 1 0 1.162 1.162 1.164 1.164 0 0 0 -1.162-1.162m0-1a2.162 2.162 0 1 1 -2.162 2.162 2.162 2.162 0 0 1 2.162-2.162z" fill="#616a6f" transform="translate(21.24 36.818)"/><circle cx="34.213" cy="38.98" fill="#cdd1d2" r="2.162"/><path d="m2.162 1a1.162 1.162 0 1 0 1.162 1.162 1.164 1.164 0 0 0 -1.162-1.162m0-1a2.162 2.162 0 1 1 -2.162 2.162 2.162 2.162 0 0 1 2.162-2.162z" fill="#616a6f" transform="translate(32.051 36.818)"/><path d="m366.448 162h-31.889v-2h31.889z" fill="#616a6f" transform="translate(-281.03 -121.783)"/><path d="m232.449 332.345-1.113-1.661 30.653-20.539 1.113 1.661z" fill="#616a6f" transform="translate(-177.828 -297.474)"/><path d="m263 333.021-31.662-21.214 1.113-1.662 31.662 21.214z" fill="#616a6f" transform="translate(-178.458 -266.976)"/><path d="m2 0h29a2 2 0 0 1 2 2v17a2 2 0 0 1 -2 2h-29a2 2 0 0 1 -2-2v-17a2 2 0 0 1 2-2z" fill="#fff" transform="translate(84.307 4)"/><path d="m2 0h29a2 2 0 0 1 2 2v3h-33v-3a2 2 0 0 1 2-2z" fill="#cdd1d2" transform="translate(84.307 4)"/><path d="m2 2v17h29v-17zm0-2h29a2 2 0 0 1 2 2v17a2 2 0 0 1 -2 2h-29a2 2 0 0 1 -2-2v-17a2 2 0 0 1 2-2z" fill="#616a6f" transform="translate(84.308 4)"/><path d="m224.518 153.134-.111-.994c.011 0 1.083-.122 1.592-.187a.542.542 0 0 0 .235-.074c-.011-.181-.056-.614-.087-.915-.015-.141-.029-.28-.041-.406a22.4 22.4 0 0 0 -1.481-3.369 2.078 2.078 0 0 0 -.3-.078c-.127-.029-.286-.064-.485-.117-.46-.122-2.219-.3-2.858-.36l.092-1c.244.022 2.4.224 3.024.39.18.048.322.08.447.108a1.546 1.546 0 0 1 .755.311c.065.056.238.206.992 1.871a11.15 11.15 0 0 1 .807 2.142c.012.125.027.263.041.4a10.284 10.284 0 0 1 .093 1.141 1.124 1.124 0 0 1 -1.109.942c-.515.072-1.562.19-1.606.195z" fill="#616a6f" transform="translate(-116.537 -133.998)"/><path d="m212.023 154.917-.018-1 7.5-.135.018 1z" fill="#616a6f" transform="translate(-115.019 -135.369)"/><path d="m207.626 153.615h-1.448-.05c-.016 0-.392-.04-.793-.126-.711-.152-1.072-.355-1.207-.679a5.684 5.684 0 0 1 -.2-1.567.5.5 0 0 1 .057-.241l.45-.858a2.276 2.276 0 0 1 1.394-1.094l.633-.209c.81-.267 2.165-.714 2.375-.835a19.416 19.416 0 0 1 4.839-2.085 18.849 18.849 0 0 1 4.964-.254l-.073 1a17.783 17.783 0 0 0 -4.736.244 18.337 18.337 0 0 0 -4.478 1.953 20.638 20.638 0 0 1 -2.579.929l-.626.207a1.384 1.384 0 0 0 -.8.557.2.2 0 0 1 -.02.041l-.4.756a6.07 6.07 0 0 0 .1 1 4.507 4.507 0 0 0 1.175.26h1.422z" fill="#616a6f" transform="translate(-113.741 -133.992)"/><circle cx="95.403" cy="18.98" fill="#cdd1d2" r="2.162"/><path d="m2.162 1a1.162 1.162 0 1 0 1.162 1.162 1.164 1.164 0 0 0 -1.162-1.162m0-1a2.162 2.162 0 1 1 -2.162 2.162 2.162 2.162 0 0 1 2.162-2.162z" fill="#616a6f" transform="translate(93.241 16.818)"/><circle cx="106.214" cy="18.98" fill="#cdd1d2" r="2.162"/><path d="m2.162 1a1.162 1.162 0 1 0 1.162 1.162 1.164 1.164 0 0 0 -1.162-1.162m0-1a2.162 2.162 0 1 1 -2.162 2.162 2.162 2.162 0 0 1 2.162-2.162z" fill="#616a6f" transform="translate(104.052 16.818)"/><path d="m31 .5h-31v-1h31z" fill="#616a6f" transform="translate(85.5 9.5)"/><path d="m2 0h29a2 2 0 0 1 2 2v17a2 2 0 0 1 -2 2h-29a2 2 0 0 1 -2-2v-17a2 2 0 0 1 2-2z" fill="#fff" transform="translate(84.307 29.217)"/><path d="m2 0h29a2 2 0 0 1 2 2v3h-33v-3a2 2 0 0 1 2-2z" fill="#cdd1d2" transform="translate(84.307 29.217)"/><g fill="#616a6f"><path d="m2 2v17h29v-17zm0-2h29a2 2 0 0 1 2 2v17a2 2 0 0 1 -2 2h-29a2 2 0 0 1 -2-2v-17a2 2 0 0 1 2-2z" transform="translate(84.308 29.217)"/><path d="m31 .5h-31v-1h31z" transform="translate(85.5 34.717)"/><path d="m270.3 307.356h-5.887a.5.5 0 0 1 0-1h5.887a.5.5 0 0 1 0 1z" transform="translate(-157.135 -265.318)"/><path d="m270.3 307.356h-5.887a.5.5 0 0 1 0-1h5.887a.5.5 0 0 1 0 1z" transform="translate(-157.135 -267.96)"/><path d="m270.3 307.356h-5.887a.5.5 0 0 1 0-1h5.887a.5.5 0 0 1 0 1z" transform="translate(-157.135 -262.676)"/><path d="m224 152.11-.1-.894c.009 0 .921-.1 1.353-.159a.483.483 0 0 0 .178-.051c-.011-.161-.047-.516-.073-.764-.012-.119-.024-.237-.035-.344a19.463 19.463 0 0 0 -1.251-2.847 2.166 2.166 0 0 0 -.24-.062c-.108-.024-.243-.055-.414-.1-.389-.1-1.883-.256-2.426-.306l.082-.9c.207.019 2.042.19 2.575.332.153.041.273.068.379.091a1.351 1.351 0 0 1 .653.27c.056.049.206.178.849 1.6a9.478 9.478 0 0 1 .688 1.829c.01.105.022.222.035.34a8.541 8.541 0 0 1 .079.976.986.986 0 0 1 -.965.824c-.441.061-1.331.161-1.367.165z" transform="translate(-120.978 -107.915)"/><path d="m212.023 154.9-.018-1 6.376-.115.018 1z" transform="translate(-118.336 -110.301)"/><path d="m207.146 152.514h-1.231-.045c-1.493-.152-1.664-.564-1.721-.7a4.851 4.851 0 0 1 -.174-1.341.45.45 0 0 1 .052-.217l.383-.729a1.963 1.963 0 0 1 1.2-.942l.538-.178c.686-.226 1.834-.6 2.015-.708a16.533 16.533 0 0 1 4.122-1.776 16.05 16.05 0 0 1 4.226-.216l-.065.9a15.1 15.1 0 0 0 -4.021.207 15.562 15.562 0 0 0 -3.8 1.657 17.51 17.51 0 0 1 -2.2.792l-.531.176a1.161 1.161 0 0 0 -.667.46.169.169 0 0 1 -.018.036l-.335.637a5.252 5.252 0 0 0 .082.831 3.9 3.9 0 0 0 .979.214h1.208z" transform="translate(-116.113 -107.905)"/></g><circle cx="92.324" cy="44.037" fill="#cdd1d2" r="1.838"/><path d="m1.838.7a1.138 1.138 0 1 0 1.139 1.138 1.14 1.14 0 0 0 -1.139-1.138m0-.7a1.838 1.838 0 1 1 -1.838 1.838 1.838 1.838 0 0 1 1.838-1.838z" fill="#616a6f" transform="translate(90.486 42.199)"/><circle cx="101.515" cy="44.037" fill="#cdd1d2" r="1.838"/><path d="m1.838.7a1.138 1.138 0 1 0 1.139 1.138 1.14 1.14 0 0 0 -1.139-1.138m0-.7a1.838 1.838 0 1 1 -1.838 1.838 1.838 1.838 0 0 1 1.838-1.838z" fill="#616a6f" transform="translate(99.677 42.199)"/><path d="m2 0h29a2 2 0 0 1 2 2v17a2 2 0 0 1 -2 2h-29a2 2 0 0 1 -2-2v-17a2 2 0 0 1 2-2z" fill="#fff" transform="translate(84.307 55.217)"/><path d="m2 0h29a2 2 0 0 1 2 2v3h-33v-3a2 2 0 0 1 2-2z" fill="#cdd1d2" transform="translate(84.307 55.217)"/><path d="m2 2v17h29v-17zm0-2h29a2 2 0 0 1 2 2v17a2 2 0 0 1 -2 2h-29a2 2 0 0 1 -2-2v-17a2 2 0 0 1 2-2z" fill="#616a6f" transform="translate(84.308 55.217)"/><path d="m31 .5h-31v-1h31z" fill="#616a6f" transform="translate(85.5 60.717)"/><path d="m270.3 307.356h-5.887a.5.5 0 0 1 0-1h5.887a.5.5 0 0 1 0 1z" fill="#616a6f" transform="translate(-176.135 -239.318)"/><path d="m270.3 307.356h-5.887a.5.5 0 0 1 0-1h5.887a.5.5 0 0 1 0 1z" fill="#616a6f" transform="translate(-176.135 -241.96)"/><path d="m270.3 307.356h-5.887a.5.5 0 0 1 0-1h5.887a.5.5 0 0 1 0 1z" fill="#616a6f" transform="translate(-176.135 -236.676)"/><path d="m224 152.11-.1-.894c.009 0 .921-.1 1.353-.159a.483.483 0 0 0 .178-.051c-.011-.161-.047-.516-.073-.764-.012-.119-.024-.237-.035-.344a19.463 19.463 0 0 0 -1.251-2.847 2.166 2.166 0 0 0 -.24-.062c-.108-.024-.243-.055-.414-.1-.389-.1-1.883-.256-2.426-.306l.082-.9c.207.019 2.042.19 2.575.332.153.041.273.068.379.091a1.351 1.351 0 0 1 .653.27c.056.049.206.178.849 1.6a9.478 9.478 0 0 1 .688 1.829c.01.105.022.222.035.34a8.541 8.541 0 0 1 .079.976.986.986 0 0 1 -.965.824c-.441.061-1.331.161-1.367.165z" fill="#616a6f" transform="translate(-112.978 -81.915)"/><path d="m212.023 154.9-.018-1 6.376-.115.018 1z" fill="#616a6f" transform="translate(-110.336 -84.301)"/><path d="m207.146 152.514h-1.231-.045c-1.493-.152-1.664-.564-1.721-.7a4.851 4.851 0 0 1 -.174-1.341.45.45 0 0 1 .052-.217l.383-.729a1.963 1.963 0 0 1 1.2-.942l.538-.178c.686-.226 1.834-.6 2.015-.708a16.533 16.533 0 0 1 4.122-1.776 16.05 16.05 0 0 1 4.226-.216l-.065.9a15.1 15.1 0 0 0 -4.021.207 15.562 15.562 0 0 0 -3.8 1.657 17.51 17.51 0 0 1 -2.2.792l-.531.176a1.161 1.161 0 0 0 -.667.46.169.169 0 0 1 -.018.036l-.335.637a5.252 5.252 0 0 0 .082.831 3.9 3.9 0 0 0 .979.214h1.208z" fill="#616a6f" transform="translate(-108.113 -81.905)"/><circle cx="100.324" cy="70.037" fill="#cdd1d2" r="1.838"/><path d="m1.838.7a1.138 1.138 0 1 0 1.139 1.138 1.14 1.14 0 0 0 -1.139-1.138m0-.7a1.838 1.838 0 1 1 -1.838 1.838 1.838 1.838 0 0 1 1.838-1.838z" fill="#616a6f" transform="translate(98.486 68.199)"/><circle cx="109.515" cy="70.037" fill="#cdd1d2" r="1.838"/><path d="m1.838.7a1.138 1.138 0 1 0 1.139 1.138 1.14 1.14 0 0 0 -1.139-1.138m0-.7a1.838 1.838 0 1 1 -1.838 1.838 1.838 1.838 0 0 1 1.838-1.838z" fill="#616a6f" transform="translate(107.677 68.199)"/></svg>