<svg height="80" viewBox="0 0 120 80" width="120" xmlns="http://www.w3.org/2000/svg"><path d="m0 0h120v80h-120z" fill="none"/><path d="m0 0h63v46h-63z" fill="#f5f5f5" transform="translate(8 0)"/><g fill="#626b70"><path d="m2 2v42h59v-42zm-2-2h63v46h-63z" transform="translate(8 0)"/><path d="m1603.448 601.719h-25.23a.5.5 0 0 1 0-1h25.23a.5.5 0 0 1 0 1z" transform="translate(-1562.034 -593.524)"/><path d="m1 1v2h2v-2zm-1-1h4v4h-4z" transform="translate(50 38)"/><path d="m1 1v2h2v-2zm-1-1h4v4h-4z" transform="translate(56 38)"/><path d="m1 1v2h2v-2zm-1-1h4v4h-4z" transform="translate(62 38)"/></g><g transform="translate(14.41 11.675)"><g fill="#626b70"><path d="m1 1v22.214h48.534v-22.214zm0-1h48.534a1 1 0 0 1 1 1v22.214a1 1 0 0 1 -1 1h-48.534a1 1 0 0 1 -1-1v-22.214a1 1 0 0 1 1-1z"/><path d="m1627.327 610.565h-49.109v-1h49.109z" transform="translate(-1577.462 -604.733)"/><path d="m1627.385 615.122h-49.167v-1h49.167z" transform="translate(-1577.462 -604.492)"/><path d="m1627.545 618.99h-49.328v-1h49.328z" transform="translate(-1577.462 -604.288)"/><path d="m1627.568 623.4h-49.351v-1h49.351z" transform="translate(-1577.462 -604.055)"/><path d="m1588.517 628.117h-1v-13.5h1z" transform="translate(-1576.945 -604.492)"/><path d="m1600.594 615.082h-1v-9.3h1z" transform="translate(-1576.307 -604.959)"/><path d="m1605.4 614.954h-1v-9.175h1z" transform="translate(-1576.053 -604.959)"/><path d="m1610.365 614.874h-1v-9.1h1z" transform="translate(-1575.791 -604.959)"/><path d="m1615.373 615.049h-1v-9.271h1z" transform="translate(-1575.527 -604.959)"/></g><path d="m1620.5 615.144h-1v-9.366h1z" fill="#707070" transform="translate(-1575.256 -604.959)"/></g><path d="m266.771 235.285 41.189 10.243-7.839 26.46z" fill="#008ec1" opacity=".3" transform="translate(-218.263 -204.292)"/><path d="m0 0h31v9h-31z" fill="#cdd1d2" transform="translate(81 70)"/><path d="m2 0h27a2 2 0 0 1 2 2v6h-31v-6a2 2 0 0 1 2-2z" fill="#cdd1d2" transform="translate(81 27)"/><path d="m3 2a1 1 0 0 0 -1 1v48a1 1 0 0 0 1 1h27a1 1 0 0 0 1-1v-48a1 1 0 0 0 -1-1zm0-2h27a3 3 0 0 1 3 3v48a3 3 0 0 1 -3 3h-27a3 3 0 0 1 -3-3v-48a3 3 0 0 1 3-3z" fill="#626b70" transform="translate(80 26)"/><path d="m1670.922 614.1h-30.634v-2h30.634z" fill="#626b70" transform="translate(-1559.052 -578.253)"/><path d="m1671.043 648.151h-30.755v-2h30.755z" fill="#626b70" transform="translate(-1559.052 -577.086)"/><path d="m1658.08 611.065h-6.18a1 1 0 0 1 0-2h6.184a1 1 0 0 1 0 2z" fill="#626b70" transform="translate(-1558.655 -578.357)"/><path d="m0 0h28.959v33.3h-28.959z" fill="#fff" transform="translate(81.972 35.778)"/><path d="m11.592.294c-.168-.35-.42-.966-.686-1.68l-3.08-8.246a9.479 9.479 0 0 1 -.476-1.456h-3.01a10.749 10.749 0 0 1 -.448 1.456l-3.052 8.246a13.014 13.014 0 0 1 -.714 1.68h2.774a6.99 6.99 0 0 1 .376-1.484l.476-1.358h4.228l.476 1.358a10.012 10.012 0 0 1 .364 1.484zm-4.2-4.816h-3.052l1.316-3.962c.1-.28.112-.35.2-.644.112.378.168.518.21.644z" fill="#626b70" transform="translate(91 57)"/><path d="m25.185 22.754h-5.685v-2.068h5.688v-5.686h2.068v5.688a2.071 2.071 0 0 1 -2.071 2.066zm-12.928 0h-5.689a2.071 2.071 0 0 1 -2.068-2.068v-5.686h2.068v5.688h5.688v2.067zm15-15h-2.072v-5.685h-5.685v-2.069h5.688a2.071 2.071 0 0 1 2.068 2.069v5.688zm-20.685 0h-2.072v-5.685a2.071 2.071 0 0 1 2.068-2.069h5.688v2.069h-5.688v5.688z" fill="#626b70" transform="translate(80.575 40.949)"/></svg>