<svg height="80" viewBox="0 0 120 80" width="120" xmlns="http://www.w3.org/2000/svg" xmlns:xlink="http://www.w3.org/1999/xlink"><clipPath id="a"><path d="m0 0h17.379v19.887h-17.379z"/></clipPath><path d="m0 0h120v80h-120z" fill="none"/><g transform="translate(8.291 19.143)"><path d="m90.929 44.047s2.4-.752 2.616-1.18-.39-6.84-.533-7.554-1.784-5.485-2.783-8.049-3.229-7.283-4.561-8.838c-.89-1.042-13.652-3.33-22-3.33a81.62 81.62 0 0 0 -19.48 2.631c-6.931 1.988-16.174 7.487-17.958 8.273s-16.321 5.35-17.101 6.207a35.025 35.025 0 0 0 -3.42 6.274c0 .428.029 5.532.285 5.842 1.427 1.713 5.78 2.612 7.035 2.745l17.3-.323c9.133-.2 31.767-.766 42.912-.956z" fill="#fff"/><path d="m12.986 48.068-.062-.007c-1.185-.126-5.966-1.02-7.7-3.1-.252-.3-.387-.6-.47-3.488-.038-1.341-.047-2.724-.047-2.994 0-.222 0-.595 1.535-3.45a25.765 25.765 0 0 1 2.148-3.5c.27-.3.8-.653 4.521-1.987 2.215-.794 4.96-1.719 7.382-2.535 2.538-.855 4.935-1.662 5.531-1.926.393-.173 1.262-.639 2.363-1.229 3.617-1.939 10.349-5.548 15.722-7.09a83.015 83.015 0 0 1 19.757-2.662 93.289 93.289 0 0 1 13.958 1.287c2.189.354 4.142.739 5.646 1.113 2.418.6 2.9.976 3.158 1.281 1.4 1.643 3.689 6.438 4.733 9.125.926 2.376 2.657 7.349 2.831 8.214.092.459.289 2.439.417 4 .3 3.663.168 3.923.03 4.2-.227.454-.73.777-1.924 1.236-.65.25-1.263.442-1.288.45l-.1.031-17.827 1.75h-.041c-7.632.13-20.611.436-31.041.681-4.824.114-8.99.212-11.867.275zm-6.1-4.247a7.9 7.9 0 0 0 2.99 1.513 19.243 19.243 0 0 0 3.2.732l17.231-.322c2.872-.063 7.038-.161 11.86-.274 10.413-.245 23.369-.55 31.013-.681l17.547-1.727a14.921 14.921 0 0 0 1.866-.719c0-1.353-.422-6.137-.561-6.833-.116-.575-1.69-5.2-2.734-7.882-.981-2.521-3.143-7.041-4.347-8.5-.528-.323-3.305-1.086-8.034-1.832a90.8 90.8 0 0 0 -13.251-1.2 80.72 80.72 0 0 0 -19.2 2.592c-5.168 1.483-11.778 5.026-15.329 6.93-1.184.635-2.039 1.093-2.5 1.3-.679.3-2.894 1.046-5.7 1.991-2.314.78-4.938 1.663-7.089 2.43a29.351 29.351 0 0 0 -4.018 1.593 41.293 41.293 0 0 0 -3.121 5.668c.003 1.558.065 4.431.182 5.222z" fill="#707070"/><path d="m90.929 44.047s2.4-.752 2.616-1.18-.39-6.84-.533-7.554-1.784-5.485-2.783-8.049-3.229-7.283-4.561-8.838c-.89-1.042-13.652-3.33-22-3.33a81.62 81.62 0 0 0 -19.48 2.631c-6.931 1.988-16.174 7.487-17.958 8.273s-16.321 5.35-17.101 6.207a35.025 35.025 0 0 0 -3.42 6.274c0 .428.029 5.532.285 5.842 1.427 1.713 5.78 2.612 7.035 2.745l17.3-.323c9.133-.2 31.767-.766 42.912-.956z" fill="#fff"/><path d="m12.975 48.319-.075-.009a21.178 21.178 0 0 1 -3.7-.833 8.929 8.929 0 0 1 -4.161-2.355 2.786 2.786 0 0 1 -.439-1.692c-.036-.49-.066-1.146-.089-1.949-.039-1.344-.047-2.73-.047-3s0-.658 1.565-3.569a24.913 24.913 0 0 1 2.184-3.551c.313-.344.83-.695 4.621-2.053 2.217-.795 4.964-1.72 7.387-2.536 2.532-.853 4.924-1.659 5.51-1.917.384-.169 1.25-.633 2.346-1.221 3.625-1.943 10.373-5.561 15.772-7.11a83.3 83.3 0 0 1 19.823-2.679 93.547 93.547 0 0 1 14 1.29c2.2.355 4.156.741 5.667 1.117 2.49.619 3 1.027 3.288 1.361 1.558 1.826 3.88 6.891 4.776 9.2.929 2.383 2.667 7.38 2.843 8.255.1.483.293 2.467.421 4.029.079.975.136 1.825.163 2.457a3.669 3.669 0 0 1 -.158 1.873c-.259.518-.8.873-2.058 1.358-.657.253-1.277.448-1.3.456l-.123.038-17.881 1.758h-.05c-7.632.13-20.611.436-31.04.681-4.824.114-8.989.212-11.867.275zm-5.848-4.619a8.128 8.128 0 0 0 2.83 1.4 19.032 19.032 0 0 0 3.131.719l17.212-.325c2.871-.063 7.036-.161 11.858-.274 10.41-.245 23.359-.55 31.005-.681l17.51-1.723a16.27 16.27 0 0 0 1.668-.63c-.019-1.526-.437-6.022-.557-6.628-.118-.578-1.686-5.183-2.722-7.84a44.759 44.759 0 0 0 -4.277-8.395 39.813 39.813 0 0 0 -8-1.8 90.428 90.428 0 0 0 -13.118-1.182 80.432 80.432 0 0 0 -19.135 2.582c-5.142 1.477-11.732 5.016-15.279 6.915-1.188.637-2.047 1.1-2.519 1.305-.655.289-2.6.948-5.72 2-2.293.772-4.892 1.648-7.031 2.409a33.058 33.058 0 0 0 -3.989 1.568 25.545 25.545 0 0 0 -1.644 2.746c-.739 1.36-1.248 2.419-1.391 2.782.004 1.502.062 4.189.168 5.052z" fill="#636b6f"/></g><path d="m32.751 27.078a7.031 7.031 0 1 1 -7.035-7.031 7.036 7.036 0 0 1 7.035 7.031" fill="#ced1d2" transform="translate(57.06 37.744)"/><path d="m25.722 35.363a8.286 8.286 0 1 1 5.857-2.43 8.29 8.29 0 0 1 -5.858 2.43zm-.006-14.063a5.783 5.783 0 1 0 5.784 5.778 5.793 5.793 0 0 0 -5.784-5.778z" fill="#707070" transform="translate(57.06 37.744)"/><path d="m25.715 19.047a8.033 8.033 0 1 1 -8.026 8.035 8.042 8.042 0 0 1 8.027-8.035zm.006 14.066a6.033 6.033 0 1 0 -6.031-6.031 6.046 6.046 0 0 0 6.031 6.031z" fill="#636b6f" transform="translate(57.06 37.744)"/><path d="m22.742 27.082a7.031 7.031 0 1 1 -7.035-7.031 7.036 7.036 0 0 1 7.035 7.031" fill="#ced1d2" transform="translate(19.457 37.759)"/><path d="m15.713 35.367a8.287 8.287 0 1 1 5.857-2.43 8.29 8.29 0 0 1 -5.858 2.43zm-.006-14.067a5.783 5.783 0 1 0 5.786 5.781 5.793 5.793 0 0 0 -5.786-5.781z" fill="#707070" transform="translate(19.457 37.759)"/><path d="m15.706 19.051a8.033 8.033 0 1 1 -8.026 8.035 8.042 8.042 0 0 1 8.027-8.035zm.006 14.066a6.033 6.033 0 1 0 -6.031-6.031 6.046 6.046 0 0 0 6.031 6.031z" fill="#636b6f" transform="translate(19.457 37.759)"/><path d="m18 0a18 18 0 1 1 -18 18 18 18 0 0 1 18-18z" fill="#e0eef6" transform="translate(76 8.125)"/><path d="m18 2.5a15.5 15.5 0 0 0 -10.96 26.46 15.5 15.5 0 1 0 21.92-21.92 15.4 15.4 0 0 0 -10.96-4.54m0-2.5a18 18 0 1 1 -18 18 18 18 0 0 1 18-18z" fill="#626b70" transform="translate(76 8.125)"/><g clip-path="url(#a)" transform="translate(85.312 17.181)"><path d="m10.112 15.346v3.288a1.283 1.283 0 0 1 -1.423 1.253 1.3 1.3 0 0 1 -1.423-1.253v-3.288h-4.966a1.119 1.119 0 0 1 -1.225-1.065 1.105 1.105 0 0 1 1.225-1.063h4.966v-1.585l-.225-.307h-4.741a1.119 1.119 0 0 1 -1.225-1.065 1.105 1.105 0 0 1 1.225-1.061h3.2l-5.277-7.309a1.116 1.116 0 0 1 -.223-.638 1.4 1.4 0 0 1 1.448-1.23 1.228 1.228 0 0 1 1.052.544l6.014 8.633h.35l6.017-8.633a1.262 1.262 0 0 1 1.074-.567 1.408 1.408 0 0 1 1.423 1.228 1.117 1.117 0 0 1 -.223.64l-5.295 7.332h3.021a1.09 1.09 0 0 1 1.219 1.062 1.1 1.1 0 0 1 -1.223 1.065h-4.54l-.225.307v1.585h4.769a1.09 1.09 0 0 1 1.219 1.062 1.1 1.1 0 0 1 -1.223 1.065z" fill="#626b70" transform="translate(0 .001)"/></g></svg>