<svg height="80.007" viewBox="0 0 120 80.007" width="120" xmlns="http://www.w3.org/2000/svg"><path d="m0 0h120v80h-120z" fill="none"/><path d="m1285.529 1801.171 14.858 4.216s4.582.368 5.531-1.721 2.963-5.539-5.531-8.772-18.949-7.15-18.949-7.15h-17.007s-2-.431-1.925 3.27 0 14.982 0 14.982.073 2.282 2.958 2.213 8.232 0 8.232 0l23.383 7.8a12.53 12.53 0 0 0 10 0c5.357-2.344 26.579-13.168 26.579-13.168s4.364-2.772 3.057-6.043c-1.417-2.771-3.014-3.9-7.534-2.651s-22.1 6.373-22.1 6.373" fill="#fff" transform="translate(-1242.915 -1738.294)"/><path d="m1302.106 1818.3a13.539 13.539 0 0 1 -5.5-1.134l-23.123-7.709c-.985-.011-5.471-.057-7.992 0a3.952 3.952 0 0 1 -3.627-1.632 3.6 3.6 0 0 1 -.61-1.791c0-.016 0-.033 0-.049 0-.113.078-11.306 0-14.947-.04-1.873.4-3.2 1.312-3.955a2.6 2.6 0 0 1 1.951-.591h16.919a1.248 1.248 0 0 1 .438.079c.1.039 10.555 3.954 18.955 7.152 3.819 1.454 6.075 3.14 6.9 5.155.018.044.035.087.051.131 3.859-1.124 17.237-5.016 21.073-6.073 2.479-.683 4.3-.725 5.74-.131a6.641 6.641 0 0 1 3.239 3.418q.026.051.048.105c.716 1.792.286 3.7-1.243 5.517a11.245 11.245 0 0 1 -2.3 2.045q-.05.032-.1.058c-.868.443-21.317 10.867-26.646 13.2a13.573 13.573 0 0 1 -5.485 1.152zm-33.212-11.372c2.375 0 4.674.029 4.819.031a1.246 1.246 0 0 1 .379.064l23.383 7.8a1.251 1.251 0 0 1 .168.07 10.25 10.25 0 0 0 2.716.775 11.106 11.106 0 0 0 6.221-.8c5.12-2.241 25.177-12.456 26.451-13.1a8.832 8.832 0 0 0 1.725-1.557c1.268-1.53.968-2.512.822-2.887a4.149 4.149 0 0 0 -1.941-2.193c-.9-.37-2.2-.3-4.121.23-4 1.1-18.449 5.308-21.513 6.2a9.452 9.452 0 0 1 -.831 2.383l-.115.25c-.584 1.285-1.961 2.081-4.094 2.366a14 14 0 0 1 -2.676.084 1.254 1.254 0 0 1 -.241-.043l-14.858-4.216a1.25 1.25 0 1 1 .682-2.405l14.734 4.181c1.52.094 3.811-.2 4.177-1 .039-.086.08-.175.122-.266a3.811 3.811 0 0 0 .51-3.06c-.53-1.3-2.421-2.6-5.47-3.761-7.731-2.943-17.2-6.495-18.731-7.068h-16.78a1.251 1.251 0 0 1 -.195-.015.16.16 0 0 0 -.1.052c-.07.069-.415.488-.384 1.956.076 3.542.006 14.09 0 14.961a1.174 1.174 0 0 0 .222.535 1.71 1.71 0 0 0 1.457.477c.983-.035 2.233-.043 3.462-.043z" fill="#626b70" transform="translate(-1242.915 -1738.294)"/><g transform="translate(29.175 3.269)"><path d="m73.794 38.226s1.919-.6 2.09-.943a45.488 45.488 0 0 0 -.426-6.035c-.114-.566-1.425-4.382-2.223-6.43a34.834 34.834 0 0 0 -3.645-7.061c-.711-.832-10.907-2.66-17.577-2.66a65.209 65.209 0 0 0 -15.563 2.1c-5.536 1.589-12.921 5.983-14.35 6.61s-13.035 4.275-13.658 4.959a27.983 27.983 0 0 0 -2.733 5.013 34.751 34.751 0 0 0 .228 4.667c1.14 1.368 4.618 2.086 5.621 2.193l13.818-.258c7.3-.16 25.38-.612 34.284-.764z" fill="#fff"/><path d="m11.5 41.89-.077-.008a17.2 17.2 0 0 1 -3.008-.676 7.364 7.364 0 0 1 -3.441-1.96 2.431 2.431 0 0 1 -.409-1.494c-.029-.4-.053-.923-.072-1.568-.031-1.077-.038-2.188-.038-2.4 0-.276 0-.589 1.28-2.97a20 20 0 0 1 1.785-2.892c.484-.531 1.746-1.056 9.7-3.735 2.018-.68 3.923-1.322 4.381-1.524.3-.131 1.021-.518 1.857-.967 2.9-1.557 8.311-4.455 12.65-5.7a66.841 66.841 0 0 1 15.906-2.15 77.6 77.6 0 0 1 11.223 1.034c1.761.285 3.334.595 4.548.9 1.86.463 2.434.79 2.757 1.168 1.264 1.482 3.137 5.564 3.859 7.42.756 1.941 2.137 5.908 2.284 6.637.079.4.238 1.993.34 3.248.044.546.1 1.331.131 1.973a3.15 3.15 0 0 1 -.156 1.616c-.239.478-.7.794-1.778 1.207-.533.2-1.036.363-1.057.369l-.123.038-14.31 1.41h-.051c-6.1.1-16.464.348-24.794.544-3.855.091-7.184.169-9.484.219zm-4.419-4.061a11.2 11.2 0 0 0 4.535 1.558l13.737-.257c2.293-.05 5.622-.129 9.475-.219 8.311-.2 18.65-.439 24.76-.544l13.952-1.373c.409-.132.833-.29 1.129-.417-.039-1.318-.346-4.6-.436-5.083-.108-.5-1.356-4.152-2.163-6.223a35.621 35.621 0 0 0 -3.344-6.6 34.2 34.2 0 0 0 -6.352-1.4 71.882 71.882 0 0 0 -10.361-.929 63.973 63.973 0 0 0 -15.213 2.058c-4.083 1.171-9.336 3.987-12.158 5.5-.99.531-1.644.881-2.03 1.051-.534.236-2.017.738-4.591 1.605-2.743.924-7.78 2.621-8.718 3.134a35.574 35.574 0 0 0 -2.34 4.268c0 1.142.042 3.126.118 3.871z" fill="#707070"/><path d="m73.794 38.226s1.919-.6 2.09-.943a45.488 45.488 0 0 0 -.426-6.035c-.114-.566-1.425-4.382-2.223-6.43a34.834 34.834 0 0 0 -3.645-7.061c-.711-.832-10.907-2.66-17.577-2.66a65.209 65.209 0 0 0 -15.563 2.1c-5.536 1.589-12.921 5.983-14.35 6.61s-13.035 4.275-13.658 4.959a27.983 27.983 0 0 0 -2.733 5.013 34.751 34.751 0 0 0 .228 4.667c1.14 1.368 4.618 2.086 5.621 2.193l13.818-.258c7.3-.16 25.38-.612 34.284-.764z" fill="#fff"/><path d="m11.5 41.89-.077-.008a17.2 17.2 0 0 1 -3.008-.676 7.364 7.364 0 0 1 -3.441-1.96 2.431 2.431 0 0 1 -.409-1.494c-.029-.4-.053-.923-.072-1.568-.031-1.077-.038-2.188-.038-2.4 0-.276 0-.589 1.28-2.97a20 20 0 0 1 1.785-2.892c.484-.531 1.746-1.056 9.7-3.735 2.018-.68 3.923-1.322 4.381-1.524.3-.131 1.02-.518 1.857-.967 2.9-1.557 8.311-4.455 12.65-5.7a66.841 66.841 0 0 1 15.906-2.15 77.6 77.6 0 0 1 11.223 1.034c1.761.285 3.334.595 4.548.9 1.86.463 2.434.79 2.757 1.168 1.264 1.482 3.137 5.564 3.859 7.42.756 1.941 2.137 5.908 2.284 6.637.079.4.238 1.993.34 3.248.044.546.1 1.331.131 1.973a3.15 3.15 0 0 1 -.156 1.616c-.239.478-.7.794-1.778 1.207-.532.2-1.036.363-1.057.369l-.123.038-14.31 1.41h-.051c-6.1.1-16.467.348-24.8.544-3.853.091-7.181.169-9.479.219zm-4.419-4.061a11.2 11.2 0 0 0 4.535 1.558l13.737-.257c2.293-.05 5.619-.128 9.471-.219 8.313-.2 18.653-.439 24.764-.544l13.952-1.373c.409-.132.833-.29 1.129-.417-.039-1.318-.345-4.6-.436-5.083-.108-.5-1.356-4.152-2.163-6.223a35.621 35.621 0 0 0 -3.344-6.6 34.2 34.2 0 0 0 -6.352-1.4 71.882 71.882 0 0 0 -10.361-.929 63.973 63.973 0 0 0 -15.213 2.058c-4.083 1.171-9.336 3.987-12.158 5.5-.99.531-1.644.881-2.03 1.051-.534.236-2.017.738-4.591 1.605-2.743.924-7.78 2.621-8.718 3.134a35.579 35.579 0 0 0 -2.34 4.268c0 1.142.042 3.126.118 3.871z" fill="#636b6f"/></g><path d="m29.924 25.664a5.617 5.617 0 1 1 -5.624-5.617 5.622 5.622 0 0 1 5.621 5.617" fill="#ced1d2" transform="translate(65.528 17.134)"/><path d="m24.309 32.535a6.869 6.869 0 1 1 6.867-6.871 6.875 6.875 0 0 1 -6.869 6.871zm-.009-11.235a4.369 4.369 0 1 0 4.371 4.367 4.376 4.376 0 0 0 -4.371-4.367z" fill="#707070" transform="translate(65.528 17.134)"/><path d="m24.3 18.8a6.869 6.869 0 1 1 -6.863 6.871 6.877 6.877 0 0 1 6.863-6.871zm.005 11.238a4.369 4.369 0 1 0 -4.367-4.367 4.378 4.378 0 0 0 4.369 4.364z" fill="#636b6f" transform="translate(65.528 17.134)"/><path d="m19.915 25.668a5.617 5.617 0 1 1 -5.621-5.617 5.622 5.622 0 0 1 5.621 5.617" fill="#ced1d2" transform="translate(37.498 17.145)"/><path d="m14.3 32.539a6.869 6.869 0 1 1 6.867-6.871 6.875 6.875 0 0 1 -6.867 6.871zm-.006-11.239a4.369 4.369 0 1 0 4.371 4.367 4.376 4.376 0 0 0 -4.371-4.367z" fill="#707070" transform="translate(37.498 17.145)"/><path d="m14.293 18.8a6.869 6.869 0 1 1 -6.863 6.871 6.877 6.877 0 0 1 6.864-6.871zm.007 11.239a4.369 4.369 0 1 0 -4.367-4.367 4.378 4.378 0 0 0 4.367 4.367z" fill="#636b6f" transform="translate(37.498 17.145)"/></svg>