<svg height="80" viewBox="0 0 120 80" width="120" xmlns="http://www.w3.org/2000/svg"><path d="m0 0h120v80h-120z" fill="none"/><path d="m0 0h37v11h-37z" fill="#cdd1d2" transform="translate(42 64.573)"/><path d="m2 0h33a2 2 0 0 1 2 2v7h-37v-7a2 2 0 0 1 2-2z" fill="#cdd1d2" transform="translate(42 13.573)"/><g fill="#626b70"><path d="m3 2a1 1 0 0 0 -1 1v58a1 1 0 0 0 1 1h33a1 1 0 0 0 1-1v-58a1 1 0 0 0 -1-1zm0-2h33a3 3 0 0 1 3 3v58a3 3 0 0 1 -3 3h-33a3 3 0 0 1 -3-3v-58a3 3 0 0 1 3-3z" transform="translate(41 12.573)"/><path d="m1676.782 614.1h-36.493v-2h36.493z" transform="translate(-1597.816 -589.987)"/><path d="m1676.926 648.151h-36.637v-2h36.637z" transform="translate(-1597.816 -582.085)"/><path d="m1659.263 611.065h-7.363a1 1 0 0 1 0-2h7.367a1 1 0 0 1 0 2z" transform="translate(-1595.122 -590.692)"/></g><path d="m0 0h34.5v39.673h-34.5z" fill="#fff" transform="translate(43.349 24.221)"/><path d="m372.433 115.133v-17.484s-.162-1.835 2.981-7.282 4.227-9.731 8.538-7.725c7.061 3.413 0 15.92 0 15.92v16.571" fill="#fff" transform="translate(-341.105 -39.739)"/><path d="m383.953 116.133a1 1 0 0 1 -1-1v-16.833l.129-.229a30.348 30.348 0 0 0 1.918-4.351c1.091-3.119 1.366-5.727.8-7.544a4.18 4.18 0 0 0 -2.277-2.631 2.39 2.39 0 0 0 -2.943.191 17.015 17.015 0 0 0 -2.752 4.293c-.456.862-.973 1.838-1.549 2.837-2.673 4.634-2.838 6.5-2.848 6.713l.01.063-.01.006v17.484a1 1 0 0 1 -2 0v-17.456c-.021-.5.118-2.615 3.115-7.809.558-.967 1.044-1.885 1.513-2.773a17.651 17.651 0 0 1 3.185-4.848c1.432-1.283 3.109-1.451 5.127-.512l.013.006a6.164 6.164 0 0 1 3.323 3.84c1.524 4.871-2.01 11.846-2.758 13.237v16.315a1 1 0 0 1 -.996 1.001z" fill="#626b70" transform="translate(-341.105 -39.739)"/><path d="m5.372 0a5.372 5.372 0 0 1 5.372 5.372v7.162a5.372 5.372 0 0 1 -10.744 0v-7.162a5.372 5.372 0 0 1 5.372-5.372z" fill="#fff" transform="matrix(.62932039 .77714596 -.77714596 .62932039 84.212 32.904)"/><path d="m5.372 2a3.376 3.376 0 0 0 -3.372 3.372v7.162a3.372 3.372 0 1 0 6.744 0v-7.162a3.376 3.376 0 0 0 -3.372-3.372m0-2a5.372 5.372 0 0 1 5.372 5.372v7.162a5.372 5.372 0 1 1 -10.744 0v-7.162a5.372 5.372 0 0 1 5.372-5.372z" fill="#626b70" transform="matrix(.62932039 .77714596 -.77714596 .62932039 84.212 32.904)"/><path d="m5.372 0a5.372 5.372 0 0 1 5.372 5.372v7.162a5.372 5.372 0 0 1 -10.744 0v-7.162a5.372 5.372 0 0 1 5.372-5.372z" fill="#fff" transform="matrix(.62932039 .77714596 -.77714596 .62932039 84.212 43.307)"/><path d="m5.372 2a3.376 3.376 0 0 0 -3.372 3.372v7.162a3.372 3.372 0 1 0 6.744 0v-7.162a3.376 3.376 0 0 0 -3.372-3.372m0-2a5.372 5.372 0 0 1 5.372 5.372v7.162a5.372 5.372 0 1 1 -10.744 0v-7.162a5.372 5.372 0 0 1 5.372-5.372z" fill="#626b70" transform="matrix(.62932039 .77714596 -.77714596 .62932039 84.212 43.307)"/><path d="m5.372 0a5.372 5.372 0 0 1 5.372 5.372v5.372a5.372 5.372 0 1 1 -10.744 0v-5.372a5.372 5.372 0 0 1 5.372-5.372z" fill="#fff" transform="matrix(.62932039 .77714596 -.77714596 .62932039 82.82 55.143)"/><path d="m5.372 2a3.376 3.376 0 0 0 -3.372 3.372v5.372a3.372 3.372 0 1 0 6.744 0v-5.372a3.376 3.376 0 0 0 -3.372-3.372m0-2a5.372 5.372 0 0 1 5.372 5.372v5.372a5.372 5.372 0 1 1 -10.744 0v-5.372a5.372 5.372 0 0 1 5.372-5.372z" fill="#626b70" transform="matrix(.62932039 .77714596 -.77714596 .62932039 82.82 55.143)"/><path d="m3.954 0a3.954 3.954 0 0 1 3.954 3.954v6.07h-7.908v-6.07a3.954 3.954 0 0 1 3.954-3.954z" fill="#fff" transform="matrix(.62932039 .77714596 -.77714596 .62932039 87.629 20.425)"/><path d="m57.81 29.423 4.914 5.346-4.914 3.714z" fill="#fff" transform="translate(22.081 -2.771)"/><path d="m0 18.169v-2.433l9.458-7.659a3.481 3.481 0 0 0 -4.382-5.41l-5.076 4.11v-2.432l3.887-3.145a5.372 5.372 0 1 1 6.762 8.349l-10.649 8.619z" fill="#626b70" transform="matrix(1 .017 -.017 1 78.918 20.798)"/><g transform="translate(50.06 34.163)"><path d="m1.5 0h18.487a1.5 1.5 0 0 1 1.5 1.5v13.116a1.5 1.5 0 0 1 -1.5 1.5h-18.487a1.5 1.5 0 0 1 -1.5-1.5v-13.116a1.5 1.5 0 0 1 1.5-1.5z" fill="#fff"/><g fill="#626b70"><path d="m2 2v12.116h17.487v-12.116zm-.5-2h18.487a1.5 1.5 0 0 1 1.5 1.5v13.116a1.5 1.5 0 0 1 -1.5 1.5h-18.487a1.5 1.5 0 0 1 -1.5-1.5v-13.116a1.5 1.5 0 0 1 1.5-1.5z"/><path d="m355.311 116.3-.142-.045c-2.341-.738-9.4-3.856-9.7-3.988l.4-.915c.071.032 7.02 3.1 9.45 3.9 2.593-.772 9.6-3.871 9.672-3.9l.4.914c-.3.134-7.414 3.279-9.949 3.993z" transform="translate(-344.467 -106.439)"/><path d="m346.028 119.551-.707-.707 6.495-6.494.707.707z" transform="translate(-344.467 -104.646)"/><path d="m351.712 119.548-6.394-6.494.713-.7 6.394 6.494z" transform="translate(-331.614 -104.646)"/></g></g><path d="m0 9.03a1 1 0 0 1 -1-.967l-.2-6.171a1 1 0 0 1 .964-1.032 1 1 0 0 1 1.036.967l.2 6.173a1 1 0 0 1 -.967 1.03z" fill="#626b70" transform="matrix(.558622 -.829262 .829262 .558622 30.470514 8.14878)"/><path d="m0 6.391a1 1 0 0 1 -1-1v-5.391a1 1 0 0 1 1-1 1 1 0 0 1 1 1v5.391a1 1 0 0 1 -1 1z" fill="#626b70" transform="matrix(.838988 -.544396 .544396 .838988 40.179976 3.800104)"/><path d="m0 6.026a1 1 0 0 1 -1-1v-5.026a1 1 0 0 1 1-1 1 1 0 0 1 1 1v5.026a1 1 0 0 1 -1 1z" fill="#626b70" transform="matrix(-.19083 .982066 -.982066 -.19083 35.419536 19.734146)"/></svg>