<svg xmlns="http://www.w3.org/2000/svg" width="16" height="16" viewBox="0 0 16 16"><g transform="translate(-1533 -578)"><rect width="16" height="16" transform="translate(1533 578)" fill="none"/><path d="M12.4,8.5a.65.65,0,0,0-.65.65v3.9a.65.65,0,0,1-.65.65H3.95a.651.651,0,0,1-.65-.65V5.9a.651.651,0,0,1,.65-.65h3.9a.65.65,0,1,0,0-1.3H3.95A1.952,1.952,0,0,0,2,5.9v7.15A1.952,1.952,0,0,0,3.95,15H11.1a1.952,1.952,0,0,0,1.95-1.95V9.15A.65.65,0,0,0,12.4,8.5Zm2.55-6.1A.648.648,0,0,0,14.6,2.05.656.656,0,0,0,14.35,2h-3.9a.65.65,0,0,0,0,1.3h2.331L6.74,9.34a.65.65,0,1,0,.919.919l6.04-6.04V6.55a.65.65,0,1,0,1.3,0V2.65A.644.644,0,0,0,14.95,2.4Z" transform="translate(1533 577)" fill="#fff"/></g></svg>